SplineFontDB: 3.2
FontName: NewEng_Thai_Style
FullName: NewEng Thai Style Regular
FamilyName: NewEng Thai
Weight: Regular
Copyright: Copyright (c) 2024, Phlowyd (Farran Lee De Tao)
UComments: "2024-5-7: Created with FontForge (http://fontforge.org)"
FontLog: "v001.003 - 04/10/2024+AAoA-Started placing anchors for combining diacritics.+AAoA-Using anchor classes in Lookups/GPOS. Done all lower case glyphs.+AAoACgAA-v001.002 - 03/10/2024+AAoA-Started re-kerning kern classes.+AAoA-Kerned all class pairs, but it is not yet ideal. Some glyphs are exceptionally troublesome, perhaps they need redesigning.+AAoACgAA-v001.001 - 02/10/2024+AAoA-Added uppercase links.+AAoA-Linked eth and barred-D glyphs. Temporary solution whilst testing glyph usage in the alphabet."
Version: 001.003
ItalicAngle: 5
UnderlinePosition: -100
UnderlineWidth: 50
Ascent: 800
Descent: 200
InvalidEm: 0
LayerCount: 2
Layer: 0 0 "Back" 1
Layer: 1 0 "Fore" 0
XUID: [1021 59 1062431447 8185]
UseXUID: 1
StyleMap: 0x0000
FSType: 0
OS2Version: 0
OS2_WeightWidthSlopeOnly: 0
OS2_UseTypoMetrics: 1
CreationTime: 1715045612
ModificationTime: 1728120468
PfmFamily: 17
TTFWeight: 400
TTFWidth: 5
LineGap: 90
VLineGap: 0
OS2TypoAscent: 0
OS2TypoAOffset: 1
OS2TypoDescent: 0
OS2TypoDOffset: 1
OS2TypoLinegap: 90
OS2WinAscent: 0
OS2WinAOffset: 1
OS2WinDescent: 0
OS2WinDOffset: 1
HheadAscent: 0
HheadAOffset: 1
HheadDescent: 0
HheadDOffset: 1
OS2Vendor: 'PfEd'
Lookup: 260 0 0 "Diacritics Above" { "Anchora 1-1"  } ['abvm' ('DFLT' <'dflt' > 'armn' <'dflt' > 'cyrl' <'dflt' > 'grek' <'dflt' > 'latn' <'dflt' > ) ]
Lookup: 258 0 0 "'kern' Horizontal Kerning lookup 0" { "'kern' Horizontal Kerning lookup 0-1" [100,15,0] } ['kern' ('DFLT' <'dflt' > 'armn' <'dflt' > 'cyrl' <'dflt' > 'grek' <'dflt' > 'latn' <'dflt' > ) ]
MarkAttachClasses: 3
"round" 1 c
"vowels" 27 A a E e I i O o U u W w Y y
MarkAttachSets: 1
"vowels" 59 A E I O U W Y a e i o u w y glyph77 glyph79 glyph81 glyph80
DEI: 91125

StartChar: a
Encoding: 97 97 0
Width: 649
Flags: W
HStem: -23.1826 58.1826<288.782 311.955> 106.211 50.8018<265.963 329.605> 487.855 50.8018<230.967 432.309>
VStem: 30 37.9912<161.52 317.324> 227.23 37.9902<43.6991 98.8304> 345.624 37.9902<45.4537 97.7485> 581.777 37.9912<165.814 326.765>
AnchorPoint: "Anchora 1" 329.875 544 basechar 0
LayerCount: 2
Fore
SplineSet
326.543945312 36.9521484375 m 0
 333.795898438 40.1640625 339.966796875 43.9833984375 345.268554688 48.23828125 c 0
 345.505859375 50.3828125 345.624023438 52.5390625 345.624023438 54.6962890625 c 0
 345.624023438 72.923828125 337.390625 90.2705078125 322.294921875 101.774414062 c 0
 315.139648438 104.743164062 307.407226562 106.2109375 299.672851562 106.2109375 c 0
 294.232421875 106.2109375 279.586914062 105.541992188 265.463867188 95.490234375 c 0
 265.30078125 93.732421875 265.220703125 91.9892578125 265.220703125 90.23828125 c 0
 265.220703125 84.328125 266.575195312 56.4853515625 288.43359375 39.73046875 c 0
 295.859375 36.623046875 303.913085938 35 311.955078125 35 c 0
 311.955078125 35 321.294921875 34.6279296875 326.543945312 36.9521484375 c 0
581.77734375 228.08203125 m 0
 581.77734375 263.975585938 574.5546875 299.875976562 560.530273438 332.87890625 c 0
 547.390625 363.787109375 517.2734375 417.079101562 455.719726562 454.981445312 c 0
 415.96875 476.4609375 370.788085938 487.85546875 325.623046875 487.85546875 c 0
 291.701171875 487.85546875 224.638671875 480.8203125 158.813476562 433.260742188 c 0
 133.139648438 414.71875 110.487304688 391.891601562 92.220703125 365.983398438 c 0
 84.625 349.485351562 67.9912109375 309.327148438 67.9912109375 255.84765625 c 0
 67.9912109375 223.46484375 75.416015625 142.506835938 143.344726562 79.2861328125 c 0
 153.788085938 69.5654296875 165.177734375 60.8720703125 177.278320312 53.3349609375 c 0
 194.298828125 44.2529296875 212.471679688 37.3759765625 231.217773438 33.0263671875 c 1
 228.622070312 39.8515625 227.23046875 47.13671875 227.23046875 54.4375 c 0
 227.23046875 61.73046875 228.68359375 72.53125 235.296875 83.9853515625 c 2
 260.296875 127.286132812 l 2
 264.7890625 135.067382812 280.245117188 157.012695312 311.681640625 157.012695312 c 0
 327.586914062 157.012695312 333.991210938 153.315429688 354 141.763671875 c 0
 360.309570312 138.120117188 383.614257812 122.499023438 383.614257812 90.498046875 c 0
 383.614257812 81.7197265625 381.649414062 71.3271484375 375.403320312 60.5087890625 c 0
 347.073242188 11.4404296875 347.073242188 11.4404296875 342.60546875 6.3623046875 c 0
 330.989257812 -6.8974609375 308.001953125 -23.1826171875 265.178710938 -23.1826171875 c 0
 238.907226562 -23.1826171875 199.514648438 -17.3828125 158.7109375 6.17578125 c 0
 136.676757812 18.8974609375 123.755859375 26.3564453125 105.353515625 43.4853515625 c 0
 82.4111328125 64.837890625 30 124.1171875 30 220.046875 c 0
 30 252.828125 36.369140625 301.52734375 65.6865234375 352.306640625 c 2
 90.6865234375 395.608398438 l 2
 110.727539062 430.321289062 138.360351562 460.6171875 170.822265625 484.061523438 c 0
 220.637695312 520.053710938 280.231445312 538.657226562 337.6328125 538.657226562 c 0
 385.299804688 538.657226562 432.984375 525.96484375 474.286132812 502.119140625 c 0
 494.74609375 490.306640625 501.529296875 486.390625 514.490234375 476.561523438 c 0
 542.759765625 455.135742188 619.768554688 385.602539062 619.768554688 263.8828125 c 0
 619.768554688 245.892578125 618.48046875 190.365234375 583.881835938 130.438476562 c 0
 551.461914062 74.2861328125 551.461914062 74.2861328125 542.71875 62.4384765625 c 0
 515.358398438 25.3408203125 478.188476562 -4.396484375 436.078125 -22.884765625 c 1
 448.086914062 27.916015625 l 1
 464.967773438 35.3271484375 516.729492188 59.7509765625 557.403320312 116.932617188 c 1
 569.897460938 144.18359375 581.77734375 182.127929688 581.77734375 228.08203125 c 0
EndSplineSet
Validated: 524289
EndChar

StartChar: b
Encoding: 98 98 1
Width: 756
Flags: W
HStem: -22.1494 50.8008<310.863 528.49> 487.949 50.8008<378.027 563.093> 576.984 50.8018<221.336 286.372> 700.027 50.8008<205.863 276.879>
VStem: 30 37.9912<316.157 553.08> 166.938 37.9902<636.955 688.34> 215.41 37.9902<295.948 350.641> 287.322 37.9902<635.211 688.057> 688.583 37.9902<195.281 348.771>
AnchorPoint: "Anchora 1" 474 540 basechar 0
LayerCount: 2
Fore
SplineSet
198.71875 692.0390625 m 1
 201.140625 696.233398438 l 1
 200.630859375 696.100585938 200.122070312 695.96484375 199.614257812 695.826171875 c 2
 198.71875 692.0390625 l 1
252.283203125 627.786132812 m 0
 260.255859375 627.786132812 273.7578125 629.473632812 287.046875 638.8984375 c 0
 287.23046875 640.819335938 287.322265625 642.749023438 287.322265625 644.677734375 c 0
 287.322265625 653.130859375 285.147460938 676.633789062 262.603515625 693.22265625 c 0
 253.6796875 697.182617188 242.59765625 700.02734375 229.186523438 700.02734375 c 0
 221.482421875 700.02734375 213.78515625 699.091796875 206.220703125 697.447265625 c 1
 205.413085938 693.086914062 204.928710938 688.270507812 204.928710938 683.032226562 c 0
 204.928710938 667.907226562 209.232421875 647.372070312 228.900390625 632.479492188 c 0
 236.27734375 629.379882812 244.28125 627.786132812 252.283203125 627.786132812 c 0
67.9912109375 454.426757812 m 0
 67.9912109375 346.442382812 100.021484375 237.486328125 168.489257812 154.431640625 c 0
 195.469726562 121.708007812 228.15234375 93.4521484375 264.479492188 71.486328125 c 0
 302.895507812 50.3359375 358.680664062 28.6513671875 425.879882812 28.6513671875 c 0
 526.865234375 28.6513671875 613.989257812 76.232421875 664.889648438 147.682617188 c 1
 679.94921875 180.602539062 688.583007812 217.263671875 688.583007812 254.837890625 c 0
 688.583007812 285.931640625 680.747070312 395.014648438 575.666992188 460.16015625 c 0
 557.897460938 469.688476562 518.91796875 487.94921875 464.546875 487.94921875 c 0
 439.209960938 487.94921875 413.87109375 483.936523438 389.83203125 475.923828125 c 0
 343.693359375 460.55859375 302.576171875 430.51171875 273.885742188 391.2578125 c 1
 260.618164062 361.340820312 253.500976562 328.681640625 253.400390625 295.948242188 c 1
 215.41015625 260.147460938 l 1
 215.537109375 301.26171875 226.731445312 342.258789062 247.282226562 377.853515625 c 0
 278.249023438 431.489257812 278.249023438 431.489257812 285.185546875 441.08203125 c 0
 303.225585938 466.041015625 365.326171875 538.75 476.556640625 538.75 c 0
 539.78125 538.75 578.846679688 516.196289062 607.217773438 499.815429688 c 0
 634.620117188 483.995117188 658.889648438 462.724609375 677.950195312 437.46484375 c 0
 709.555664062 395.59765625 726.573242188 343.111328125 726.573242188 290.639648438 c 0
 726.573242188 273.643554688 725.265625 219.885742188 691.385742188 161.204101562 c 0
 660.147460938 107.096679688 660.147460938 107.096679688 652.950195312 96.98046875 c 0
 602.0625 25.4775390625 514.904296875 -22.1494140625 413.870117188 -22.1494140625 c 0
 326.510742188 -22.1494140625 266.009765625 12.7802734375 232.953125 31.8662109375 c 0
 194.036132812 54.3349609375 159.0703125 83.9765625 130.499023438 118.630859375 c 0
 62.03125 201.685546875 30 310.640625 30 418.625 c 0
 30 474.364257812 37.9404296875 549.03515625 72.626953125 609.114257812 c 2
 97.626953125 652.415039062 l 2
 120.568359375 692.150390625 155.177734375 725.874023438 197.955078125 742.150390625 c 0
 211.764648438 747.409179688 226.465820312 750.828125 241.196289062 750.828125 c 0
 263.640625 750.828125 273.526367188 745.12109375 294.374023438 733.084960938 c 0
 301.930664062 728.721679688 325.3125 712.625 325.3125 680.479492188 c 0
 325.3125 672.588867188 323.763671875 661.615234375 317.275390625 650.377929688 c 2
 292.275390625 607.076171875 l 2
 288.848632812 601.141601562 272.897460938 576.984375 240.272460938 576.984375 c 0
 224.08203125 576.984375 217.166015625 580.977539062 197.189453125 592.510742188 c 0
 186.346679688 598.771484375 166.938476562 614.54296875 166.938476562 647.231445312 c 0
 166.938476562 666.9921875 172.440429688 676.522460938 179.4921875 688.736328125 c 1
 147.2265625 674.873046875 119.900390625 651.026367188 99.1083984375 622.405273438 c 1
 84.1513671875 589.30859375 67.9912109375 534.83984375 67.9912109375 454.426757812 c 0
EndSplineSet
Validated: 524289
EndChar

StartChar: c
Encoding: 99 99 2
Width: 565
Flags: W
HStem: -14 28<241.514 363.94> 314 28<366.353 429.931> 499 28<223.915 338.941>
VStem: 30 44<169.409 356.745> 322 43.8594<362.347 423.514> 438 44<347.758 406.919>
AnchorPoint: "Anchora 1" 283 544 basechar 0
LayerCount: 2
Back
SplineSet
456 410 m 4
 441.252929688 435 422.099609375 443.997070312 402.565429688 443.997070312 c 4
 371 443.997070312 344.108398438 418.84765625 344.051757812 385.930664062 c 4
 343.995117188 353 371 328.008789062 403 328.008789062 c 4
 431.806640625 328.008789062 459.77734375 351 459.77734375 385.916015625 c 4
 459.77734375 457 367 513.0546875 285.341796875 513.0546875 c 4
 161.421875 513.0546875 51.6787109375 406.828125 51.6787109375 263.141601562 c 4
 51.6787109375 117.045898438 164.685546875 0.3115234375 298.9609375 0.3115234375 c 4
 357.62890625 0.3115234375 416.901367188 22.431640625 459.376953125 63.2041015625 c 4
 480 83 497.36328125 106 513 130 c 1028
EndSplineSet
Fore
SplineSet
322 375 m 0
 322 425 379 449 394 454 c 1
 360 482 311 499 268 499 c 0
 230 499 198 488 178 476 c 0
 128 448 74 375 74 274 c 0
 74 128 188 14 316 14 c 0
 345 14 401 20 443 60 c 0
 460 77 477 99 492 123 c 0
 499 132 520 144 530 144 c 0
 531 144 535 144 535 141 c 0
 535 140 534 139 534 137 c 0
 502 89 470 53 421 25 c 0
 371 -3 324 -14 281 -14 c 0
 141 -14 30 106 30 252 c 0
 30 301 44 416 171 489 c 0
 217 516 262 527 303 527 c 0
 389 527 482 469 482 397 c 0
 482 385 480 355 435 329 c 0
 413 316 397 314 386 314 c 0
 348 314 322 342 322 375 c 0
420 342 m 0
 423 342 425 342 427 343 c 0
 432 348 438 359 438 375 c 0
 438 388 434 397 434 397 c 0
 420 422 401 430 385 430 c 0
 381 430 379 430 377 429 c 0
 369.69140625 420.567382812 365.859375 408.974609375 365.859375 397.063476562 c 0
 365.859375 387.787109375 368.18359375 378.318359375 373 370 c 0
 383 353 402 342 420 342 c 0
EndSplineSet
Validated: 524289
EndChar

StartChar: d
Encoding: 100 100 3
Width: 730
Flags: W
HStem: -25.165 50.8018<249.245 461.605> 309.054 50.8018<244.839 340.258> 477.019 58.5801<201.16 323.148>
VStem: 30 37.9902<209.958 362.796> 186.196 37.9912<382.572 454.714> 354.179 37.9902<381.472 451.195> 662.651 37.9902<258.389 491.862>
AnchorPoint: "Anchora 1" 280 544 basechar 0
LayerCount: 2
Fore
SplineSet
315.133789062 470.18359375 m 0
 311.1640625 472.391601562 302.848632812 477.018554688 283.177734375 477.018554688 c 0
 261.62109375 477.018554688 241.3828125 468.450195312 226.17578125 454.327148438 c 0
 224.875976562 448.5 224.1875 442.435546875 224.1875 436.1953125 c 0
 224.1875 417.6640625 233.25390625 359.85546875 296.260742188 359.85546875 c 0
 316.250976562 359.85546875 336.2734375 366.728515625 351.961914062 381.404296875 c 0
 353.319335938 387.032226562 354.178710938 393.188476562 354.178710938 399.754882812 c 0
 354.178710938 436.125 326.435546875 464.627929688 315.133789062 470.18359375 c 0
284.250976562 309.053710938 m 0
 252.133789062 309.053710938 186.196289062 335.626953125 186.196289062 400.39453125 c 0
 186.196289062 415.594726562 190.28515625 429.756835938 197.33203125 441.963867188 c 2
 220.928710938 482.833007812 l 1
 191.5390625 478.512695312 133.252929688 462.110351562 87.572265625 400.174804688 c 1
 74.578125 370.471679688 67.990234375 338.104492188 67.990234375 305.037109375 c 0
 67.990234375 170.46484375 181.491210938 25.63671875 360.124023438 25.63671875 c 0
 460.197265625 25.63671875 559.635742188 73.6396484375 622.305664062 165.987304688 c 1
 642.458984375 207.44140625 662.651367188 269.534179688 662.651367188 351.594726562 c 0
 662.651367188 510.379882812 588.372070312 692.375976562 463.1484375 827.7421875 c 1
 501.138671875 863.54296875 l 1
 626.362304688 728.177734375 700.641601562 546.181640625 700.641601562 387.396484375 c 0
 700.641601562 352.553710938 697.465820312 264.369140625 648.506835938 179.5703125 c 2
 623.506835938 136.26953125 l 2
 562.2421875 30.15625 455.543945312 -25.1650390625 348.115234375 -25.1650390625 c 0
 189.288085938 -25.1650390625 30 104.169921875 30 269.235351562 c 0
 30 310.818359375 40.4169921875 351.293945312 60.890625 386.755859375 c 2
 85.890625 430.057617188 l 2
 98.0048828125 451.0390625 153.416992188 535.598632812 259.61328125 535.598632812 c 0
 327.41796875 535.598632812 392.168945312 493.497070312 392.168945312 435.555664062 c 0
 392.168945312 430.223632812 391.797851562 413.248046875 380.370117188 393.454101562 c 2
 355.370117188 350.153320312 l 2
 339.090820312 321.958007812 311.640625 309.053710938 284.250976562 309.053710938 c 0
EndSplineSet
Validated: 524289
EndChar

StartChar: dcroat
Encoding: 273 273 4
Width: 730
Flags: W
HStem: -25 51<245.471 461.287> 309 51<244.63 339.633> 477 59<200.087 331.092> 522 28<457.581 569.804> 828 28<387.827 461.59>
VStem: 30 38<209.779 363.405> 186 38<382.557 454.906> 291 44<647.384 779.383> 354 38<381.43 449.979> 662 38<258.486 497.832>
AnchorPoint: "Anchora 1" 321 600 basechar 0
LayerCount: 2
Fore
SplineSet
618 577 m 1xdfc0
 592.830078125 643.922851562 557.484375 710.53125 513 770 c 0
 473.584960938 822.692382812 426 828 410 828 c 0
 337 828 335 730 335 726 c 0
 335 634 421 550 529 550 c 0
 566.763671875 550 595.7890625 561.459960938 618 577 c 1xdfc0
662 591 m 1
 685.817382812 522.44140625 700 452.819335938 700 387 c 0
 700 353 697 264 648 180 c 2
 623 136 l 2
 562 30 455 -25 348 -25 c 0
 189 -25 30 104 30 269 c 0
 30 311 40 351 60 387 c 2
 85 430 l 2
 143 529 237 536 259 536 c 0xefc0
 327 536 392 493 392 436 c 0
 392 430 391 413 380 393 c 2
 355 350 l 2
 339 322 311 309 284 309 c 0
 252 309 186 336 186 400 c 0
 186 416 190 430 197 442 c 2
 220 483 l 1
 191 479 133 462 87 400 c 1
 74 370 68 338 68 305 c 0
 68 170 181 26 360 26 c 0
 460 26 559 74 622 166 c 1
 642 207 662 270 662 352 c 0
 662 418.932617188 648.920898438 490.466796875 624.311523438 561 c 0
 624.1953125 561.333007812 624.079101562 561.666992188 623.961914062 562 c 1
 583.588867188 536.661132812 537.102539062 522 493 522 c 0
 383 522 291 606 291 704 c 0
 291 804 387 856 446 856 c 0
 482 856 523 839 554 798 c 0
 596.16015625 740.717773438 630.33984375 677.974609375 655 613.813476562 c 0
 655.104492188 613.541992188 654.896484375 613.271484375 655 613 c 1
 655.19140625 613.260742188 655.381835938 613.739257812 655.571289062 614 c 0
 669.381835938 633.056640625 677.510742188 652.02734375 682 664 c 1
 725 684 l 1
 712.936523438 648.90625 691.251953125 617.822265625 664 592.504882812 c 0
 663.45703125 592.000976562 662.546875 591.499023438 662 591 c 1
283 477 m 0
 261 477 241 468 226 454 c 0
 224 448 224 442 224 436 c 0
 224 418 233 360 296 360 c 0
 316 360 336 367 352 381 c 0
 353 387 354 393 354 400 c 0
 354 426 339 454 315 470 c 1
 302 477 289 477 283 477 c 0
EndSplineSet
Validated: 524289
EndChar

StartChar: e
Encoding: 101 101 6
Width: 578
Flags: W
HStem: -14.1504 28.1797<261.068 392.948> 172.569 28.1982<275.815 361.298> 317.918 28.2617<231.08 292.67> 499.694 28.1777<224.489 343.232>
VStem: 30 44.1074<179.903 357.922> 177.97 43.9551<242.772 259.74 259.837 310.889> 294.066 44.0107<236.959 305.824> 455.524 44.0166<280.265 412.076>
AnchorPoint: "Anchora 1" 290 544 basechar 0
LayerCount: 2
Fore
SplineSet
499.541015625 360.243164062 m 0
 499.541015625 249.790039062 384.435546875 172.569335938 287.177734375 172.569335938 c 0
 226.350585938 172.569335938 180.45703125 205.689453125 177.783203125 259.740234375 c 1
 177.969726562 259.836914062 l 2
 177.969726562 259.905273438 177.969726562 259.973632812 177.969726562 260.041992188 c 0
 177.969726562 280.233398438 186.669921875 308.388671875 226.540039062 331.408203125 c 0
 249.081054688 344.421875 263.8515625 346.1796875 274.344726562 346.1796875 c 0
 310.038085938 346.1796875 338.077148438 318.650390625 338.077148438 286.3671875 c 0
 338.077148438 250.487304688 307.783203125 222.858398438 275.037109375 209.725585938 c 1
 288.599609375 204.068359375 304.545898438 200.767578125 322.606445312 200.767578125 c 0
 329.78125 200.767578125 364.75390625 201.602539062 391.71875 217.170898438 c 0
 420.993164062 234.072265625 455.524414062 279.045898438 455.524414062 337.75 c 0
 455.524414062 427.215820312 373.666992188 499.694335938 272.405273438 499.694335938 c 0
 234.272460938 499.694335938 199.197265625 488.752929688 176.770507812 475.8046875 c 0
 127.791015625 447.526367188 74.107421875 375.249023438 74.107421875 280.075195312 c 0
 74.107421875 138.590820312 191.732421875 14.029296875 340.395507812 14.029296875 c 0
 382.991210938 14.029296875 455.016601562 24.8544921875 510.951171875 88.412109375 c 1
 548.30078125 98.478515625 l 1
 498.9921875 42.447265625 407.836914062 -14.150390625 305.8046875 -14.150390625 c 0
 143.59765625 -14.150390625 30 118.95703125 30 257.5078125 c 0
 30 322.384765625 57.123046875 424.046875 169.270507812 488.794921875 c 0
 219.520507812 517.806640625 265.770507812 527.872070312 307.05078125 527.872070312 c 0
 419.512695312 527.872070312 499.541015625 449.354492188 499.541015625 360.243164062 c 0
221.924804688 282.081054688 m 0
 221.924804688 255.094726562 248.520507812 231.118164062 276.293945312 231.118164062 c 0
 278.990234375 231.118164062 281.474609375 231.344726562 283.379882812 231.602539062 c 0
 289.942382812 240.360351562 294.06640625 251.967773438 294.06640625 263.858398438 c 0
 294.06640625 296.235351562 264.502929688 317.91796875 240.500976562 317.91796875 c 0
 238.54296875 317.91796875 234.294921875 317.91796875 233.48828125 316.96875 c 0
 227.284179688 309.6484375 221.924804688 296.258789062 221.924804688 282.081054688 c 0
EndSplineSet
Validated: 524289
EndChar

StartChar: f
Encoding: 102 102 7
Width: 596
Flags: W
HStem: -15 28<313.3 420.996> 307 28<65 119 165 429.901> 455 28<448.378 509.408> 573 28<451.293 497.035> 785 28<299.133 397.343>
VStem: 117 44<191.331 307 335 620.547> 401 44<495.776 566.057> 518 44<97.9366 232.941 501.975 665.608>
AnchorPoint: "Anchora 1" 365 823 basechar 0
LayerCount: 2
Fore
SplineSet
161 466 m 0
 161 439 162 369 164 335 c 1
 296 335 l 2
 318 335 341 335 366 335 c 2
 398 335 l 1
 411 335 424 335 437 332 c 0
 516 318 562 248 562 178 c 0
 562 63 444 -15 347 -15 c 0
 317 -15 271 -8 227 26 c 0
 142 92 125 203 120 307 c 1
 30 307 l 1
 65 335 l 1
 119 335 l 1
 118 355 117 416 117 446 c 0
 117 533 122 700 263 782 c 0
 290 797 327 813 370 813 c 0
 400 813 458 804 506 747 c 0
 521 729 566 668 566 570 c 0
 566 552 564 521 553 505 c 0
 546 494 535 482 514 470 c 0
 506 465 486 455 465 455 c 0
 432 455 401 481 401 517 c 0
 401 567 461 601 499 601 c 0
 506 601 512 600 518 598 c 1
 497 721 413 785 336 785 c 0
 308 785 285 777 271 769 c 0
 259 762 220 736 192 669 c 0
 166 606 161 536 161 466 c 0
382 13 m 0
 388 13 424 13 452 29 c 0
 481 46 518 92 518 155 c 0
 518 227 470 291 398 304 c 0
 387 307 375 307 364 307 c 0
 341 307 312 307 261 307 c 2
 165 307 l 1
 171 211 192 112 269 52 c 0
 304 25 344 13 382 13 c 0
518 512 m 0
 518 542 496 573 463 573 c 0
 461 573 459 572 456 572 c 0
 452 566 445 555 445 539 c 0
 445 506 474 483 500 483 c 0
 503 483 505 483 507 484 c 0
 513 490 514 494 516 499 c 1
 515 498 l 1
 517 502 518 507 518 512 c 0
EndSplineSet
Validated: 1
EndChar

StartChar: phi
Encoding: 966 966 8
Width: 786
Flags: W
HStem: -14.0664 29.7812<294.923 371.315 415.268 496.307> 338.912 28.1758<251.286 297.761> 499.495 28.1758<168.449 251.813 520.648 609.959>
VStem: 30 43.9521<201.555 398.505> 189.783 43.9521<377.666 447.581> 304 43.9375<371.86 421.383 421.701 425.494> 371.315 43.9521<-180.285 -14.0664 15.7148 372.692> 712.643 43.9521<201.76 397.453>
AnchorPoint: "Anchora 1" 399 570 basechar 0
LayerCount: 2
Fore
SplineSet
189.783203125 399.1015625 m 0
 189.783203125 443.584960938 237.670898438 471.16015625 263.6015625 478.451171875 c 1
 245.72265625 491.616210938 223.196289062 499.495117188 198.866210938 499.495117188 c 0
 176.204101562 499.495117188 158.89453125 492.876953125 150.5625 488.06640625 c 0
 121.750976562 471.431640625 73.9521484375 413.67578125 73.9521484375 310.361328125 c 0
 73.9521484375 166.290039062 177.438476562 31.9052734375 371.315429688 15.71484375 c 1
 371.315429688 96.8115234375 l 2
 371.315429688 133.083984375 370.209960938 168.180664062 370.209960938 203.700195312 c 0
 370.209960938 283.461914062 371.81640625 429.985351562 494.943359375 501.073242188 c 0
 531.1015625 521.94921875 561.294921875 527.809570312 586.65625 527.809570312 c 0
 687.504882812 527.809570312 756.594726562 432.025390625 756.594726562 313.470703125 c 0
 756.594726562 259.995117188 740.692382812 126.260742188 592.513671875 40.708984375 c 0
 537.689453125 9.056640625 480.008789062 -7.947265625 415.267578125 -12.6923828125 c 1
 415.267578125 -180.28515625 l 1
 371.315429688 -202.689453125 l 1
 371.315429688 -14.06640625 l 1
 144.975585938 -12.03125 30 135.028320312 30 287.95703125 c 0
 30 331.657226562 38.0029296875 440.400390625 143.0625 501.056640625 c 0
 177.897460938 521.168945312 208.0859375 527.670898438 233.865234375 527.670898438 c 0
 298.51953125 527.670898438 341.766601562 483.325195312 347.327148438 434.129882812 c 0
 348.1328125 430.203125 348.5625 426.057617188 348.5625 421.701171875 c 1
 347.9375 421.3828125 l 1
 347.646484375 404.715820312 343.096679688 377.026367188 303.055664062 353.908203125 c 0
 279.993164062 340.59375 264.846679688 338.912109375 252.717773438 338.912109375 c 0
 215.099609375 338.912109375 189.783203125 364.801757812 189.783203125 399.1015625 c 0
414.162109375 226.104492188 m 0
 414.162109375 190.657226562 415.267578125 155.55859375 415.267578125 119.215820312 c 2
 415.267578125 14.10546875 l 1
 491.893554688 14.7646484375 549.978515625 33.47265625 585.013671875 53.7001953125 c 0
 661.291015625 97.73828125 712.642578125 190.29296875 712.642578125 291.06640625 c 0
 712.642578125 413.11328125 639.448242188 499.633789062 551.657226562 499.633789062 c 0
 529.212890625 499.633789062 511.1328125 493.099609375 502.443359375 488.083007812 c 0
 477.36328125 473.603515625 421.499023438 416.893554688 415.263671875 279.661132812 c 0
 414.4375 261.598632812 414.162109375 243.8125 414.162109375 226.104492188 c 0
233.735351562 421.5078125 m 0
 233.735351562 387.094726562 260.840820312 367.087890625 287.716796875 367.087890625 c 0
 290.400390625 367.087890625 292.818359375 367.34375 294.694335938 367.631835938 c 0
 300.91015625 376.37890625 304 387.361328125 304 400.606445312 c 0
 304 406.680664062 304 414.985351562 297.635742188 426.008789062 c 0
 287.405273438 443.728515625 267.178710938 453.3203125 250.3359375 453.3203125 c 0
 247.984375 453.3203125 246.013671875 453.133789062 244.50390625 452.913085938 c 0
 240.529296875 447.852539062 233.735351562 436.944335938 233.735351562 421.5078125 c 0
EndSplineSet
Validated: 524289
EndChar

StartChar: thorn
Encoding: 254 254 10
Width: 824
Flags: W
HStem: -214 28<337.254 396.18> 103 28<511.055 639.161> 414 29<177.038 222.812> 499 29<490.302 613.114> 529.921 28.0791<169.277 232.5> 758 28<190.505 298.592>
VStem: 30 44<513.984 656.129> 223 44<-111.854 210.89> 232 44<446.698 519.316> 406 44<-174.798 449 453.439 488.087 497 662.114> 750 44<231.5 387.869>
AnchorPoint: "Anchora 1" 529 590 basechar 0
LayerCount: 2
Fore
SplineSet
171 414 m 0xfee0
 105 414 30 478 30 572 c 0
 30 610 42 646 65 679 c 0
 105 737 185 786 266 786 c 0
 352 786 426 733 444 636 c 0
 450 609 450 580 450 553 c 2
 450 497 l 1
 494 519 536 528 574 528 c 0
 694 528 794 438 794 320 c 0
 794 265 768 187 680 136 c 0
 639 112 601 103 563 103 c 0
 537 103 513 108 490 117 c 1
 530 144 l 1
 552 136 575 131 598 131 c 0
 633 131 659 141 672 149 c 0
 709 170 750 227 750 297 c 0
 750 416 649 499 539 499 c 0
 504 499 473 491 450 479 c 1
 450 -105 l 2
 450 -154 432 -180 400 -198 c 0
 393 -202 373 -214 345 -214 c 0
 310 -214 272 -193 249 -146 c 0
 231 -109 223 -52 223 26 c 0xff60
 223 139 246 357 406 470 c 1
 406 530 l 2
 406 575 406 626 378 674 c 0
 346 730 289 758 231 758 c 0
 197 758 170 748 154 738 c 0
 115 716 74 661 74 594 c 0
 74 583 74 530 117 485 c 1
 123 516 147 533 163 542 c 0
 187 556 203 558 217 558 c 0
 248 558 276 534 276 499 c 0
 276 480 271 453 232 430 c 0
 204 414 182 414 171 414 c 0xfee0
406 449 m 1
 368 414 267 301 267 48 c 0
 267 -59 282 -104 298 -130 c 0
 321 -171 356 -186 380 -186 c 0
 385 -186 389 -185 392 -185 c 0
 403 -169 406 -146 406 -127 c 2
 406 449 l 1
160 495 m 0
 160 468 183 446 207 443 c 0
 214 442 219 443 223 444 c 0xff60
 225 447 232 457 232 477 c 0xfee0
 232 507.478515625 207.088867188 529.920898438 180.318359375 529.920898438 c 0
 177.225585938 529.920898438 174.107421875 529.62109375 171 529 c 0
 167 524 160 513 160 495 c 0
EndSplineSet
Validated: 524289
EndChar

StartChar: g
Encoding: 103 103 11
Width: 575
Flags: W
HStem: -212.178 28.1758<194.564 315.743> 53.5752 28.1758<211.296 319.42> 106.647 28.1758<310.106 367.623> 223.41 28.1758<317.521 380.014> 499.71 28.1758<208.078 325.481>
VStem: 30 43.9521<203.638 374.02> 265.619 43.9521<147.375 217.304> 380.845 43.9521<135.283 212.061> 501.123 43.9521<44.1371 321.575>
AnchorPoint: "Anchora 1" 290 544 basechar 0
LayerCount: 2
Fore
SplineSet
362.744140625 251.5859375 m 0
 397.284179688 251.5859375 424.796875 225.991210938 424.796875 186.580078125 c 0
 424.796875 123.235351562 359.35546875 77.65625 302.787109375 61.6015625 c 0
 283.250976562 56.0576171875 264.137695312 53.5751953125 243.783203125 53.5751953125 c 0
 126.309570312 53.5751953125 30 151.99609375 30 277 c 0
 30 316.797851562 41.7900390625 423.473632812 160.145507812 491.806640625 c 0
 204.912109375 517.65234375 247.532226562 527.885742188 288.365234375 527.885742188 c 0
 419.635742188 527.885742188 545.075195312 417.4921875 545.075195312 211.530273438 c 0
 545.075195312 177.810546875 540.544921875 -19.8466796875 436.740234375 -124.756835938 c 0
 420.870117188 -140.795898438 344.094726562 -212.177734375 234.723632812 -212.177734375 c 0
 207.053710938 -212.177734375 119.541992188 -205.725585938 53.75390625 -129.69921875 c 1
 96.5458984375 -103.984375 l 1
 161.046875 -178.522460938 246.00390625 -184.001953125 269.72265625 -184.001953125 c 0
 303.487304688 -184.001953125 358.39453125 -176.098632812 402.03515625 -131.995117188 c 0
 425.731445312 -108.045898438 460.328125 -59.384765625 482.303710938 33.0234375 c 0
 500.231445312 108.413085938 501.123046875 176.830078125 501.123046875 189.125976562 c 0
 501.123046875 397.185546875 372.370117188 499.709960938 253.366210938 499.709960938 c 0
 215.549804688 499.709960938 185.495117188 489.12109375 167.645507812 478.815429688 c 0
 122.751953125 452.896484375 73.9521484375 386.384765625 73.9521484375 299.404296875 c 0
 73.9521484375 173.497070312 172.833984375 81.7509765625 278.782226562 81.7509765625 c 0
 306.646484375 81.7509765625 330.708007812 87.580078125 344.153320312 95.3427734375 c 0
 349.245117188 98.2822265625 357.208007812 104.229492188 364.981445312 115.109375 c 1
 350.247070312 108.493164062 338.530273438 106.647460938 329.875976562 106.647460938 c 0
 291.311523438 106.647460938 265.619140625 135.762695312 265.619140625 168.514648438 c 0
 265.619140625 190.841796875 276.510742188 215.563476562 312.484375 236.333007812 c 0
 334.573242188 249.0859375 350.541015625 251.5859375 362.744140625 251.5859375 c 0
380.844726562 164.17578125 m 0
 380.844726562 204.243164062 351.016601562 223.41015625 327.745117188 223.41015625 c 0
 324.838867188 223.41015625 322.263671875 223.079101562 320.41796875 222.748046875 c 0
 315.28515625 216.478515625 309.571289062 206.087890625 309.571289062 190.918945312 c 0
 309.571289062 157.791015625 337.380859375 134.823242188 364.875 134.823242188 c 0
 367.078125 134.823242188 369.0390625 135.073242188 370.4375 135.329101562 c 0
 371.614257812 136.622070312 380.844726562 147.314453125 380.844726562 164.17578125 c 0
EndSplineSet
Validated: 524289
EndChar

StartChar: uni021D
Encoding: 541 541 12
Width: 553
Flags: W
HStem: -211 28<178.861 312.752> 184 28<292.778 384.157> 280 28<114.057 159.633> 396 28<102.045 148.735> 500 28<197.636 301.874>
VStem: 50 45<319.592 406.514> 167 44<314.66 385.081> 397 44<295.554 425.176> 479 44<-45.5837 102.486>
AnchorPoint: "Anchora 1" 279 544 basechar 0
LayerCount: 2
Fore
SplineSet
211 363 m 0
 211 313 148 280 114 280 c 0
 87 280 50 296 50 354 c 0
 50 442 169 528 272 528 c 0
 367 528 441 457 441 372 c 0
 441 348 441 276 319 208 c 1
 332 211 357 212 358 212 c 0
 450 212 523 137 523 43 c 0
 523 -99 370 -211 226 -211 c 0
 155 -211 85 -186 30 -128 c 1
 73 -102 l 1
 127 -159 196 -183 261 -183 c 0
 406 -183 479 -72 479 20 c 0
 479 115 404 184 323 184 c 0
 309 184 296 182 285 179 c 2
 163 142 l 1
 170 150 177 159 183 167 c 1
 189 169 295 203 343 241 c 0
 358 253 397 289 397 350 c 0
 397 434 322 500 237 500 c 0
 159 500 114 450 100 409 c 1
 122 421 138 424 149 424 c 0
 187 424 211 396 211 363 c 0
95 360 m 1
 102 319 131 308 149 308 c 0
 152 308 154 309 156 309 c 0
 158 310 167 322 167 341 c 0
 167 374 141 396 114 396 c 0
 111 396 109 395 107 395 c 0
 102 389 95 378 95 360 c 1
EndSplineSet
Validated: 1
EndChar

StartChar: ccedilla
Encoding: 231 231 13
Width: 565
Flags: W
HStem: -151 28<274.536 334> 314 28<366.353 429.931> 499 28<223.915 338.941>
VStem: 30 44<169.409 356.745> 322 43.8594<362.347 423.514> 430 44<-80.937 -7.56086> 438 44<347.758 406.919>
AnchorPoint: "Anchora 1" 283 544 basechar 0
LayerCount: 2
Back
SplineSet
456 410 m 4
 441.252929688 435 422.099609375 443.997070312 402.565429688 443.997070312 c 4
 371 443.997070312 344.108398438 418.84765625 344.051757812 385.930664062 c 4
 343.995117188 353 371 328.008789062 403 328.008789062 c 4
 431.806640625 328.008789062 459.77734375 351 459.77734375 385.916015625 c 4
 459.77734375 457 367 513.0546875 285.341796875 513.0546875 c 4
 161.421875 513.0546875 51.6787109375 406.828125 51.6787109375 263.141601562 c 4
 51.6787109375 117.045898438 164.685546875 0.3115234375 298.9609375 0.3115234375 c 4
 357.62890625 0.3115234375 416.901367188 22.431640625 459.376953125 63.2041015625 c 4
 480 83 497.36328125 106 513 130 c 1028
332.095703125 2.7119140625 m 4
 342.426757812 4.2451171875 353.012695312 6.28515625 363 9 c 4
 373.913085938 11.966796875 377.756835938 14.1826171875 390 15 c 4
 400.204101562 15.681640625 404.924804688 15.69140625 412 14 c 4
 421.2265625 11.7939453125 424.15625 10.23046875 430 6 c 4
 436.265625 1.4638671875 440.510742188 -3.0263671875 444.572265625 -9.6123046875 c 4
 448.6328125 -16.1962890625 451.05859375 -23.75 451.890625 -31.4345703125 c 4
 452.122070312 -33.5439453125 452.234375 -35.6552734375 452.234375 -37.7646484375 c 4
 452.234375 -51.0517578125 447.830078125 -64.2529296875 441.026367188 -75.7333984375 c 4
 432.717773438 -89.7490234375 420.89453125 -101.526367188 407.357421875 -110.588867188 c 4
 393.8359375 -119.654296875 378.629882812 -126.07421875 362.924804688 -130.412109375 c 4
 347.782226562 -134.590820312 332.029296875 -136.823242188 316.319335938 -136.823242188 c 4
 301.260742188 -136.823242188 286.23046875 -134.779296875 271.811523438 -130.412109375 c 4
 246.977539062 -122.890625 215.625976562 -107 191 -68 c 1028
782.12109375 77.708984375 m 0
 782.328125 77.708984375 782.533203125 77.708984375 782.737304688 77.708984375 c 2
 822 78 l 2
 931.427734375 78 978.752929688 43.7763671875 998.616210938 9.3720703125 c 0
 1009.85546875 -10.0947265625 1012.34765625 -29.6328125 1012.34765625 -43.1884765625 c 0
 1012.34765625 -66.306640625 1003.78417969 -127.840820312 919.942382812 -176.247070312 c 0
 878.002929688 -200.459960938 837.9609375 -209.688476562 797.428710938 -209.688476562 c 0
 684.356445312 -209.688476562 600.572265625 -142.650390625 537.823242188 -57.6962890625 c 1
 580.840820312 -32.2626953125 l 1
 643.34765625 -116.890625 727.127929688 -181.512695312 832.428710938 -181.512695312 c 0
 870.094726562 -181.512695312 898.873046875 -171.090820312 912.442382812 -163.256835938 c 0
 942.109375 -146.127929688 968.396484375 -107.813476562 968.396484375 -65.5927734375 c 0
 968.396484375 -30.3310546875 950.440429688 49.82421875 787.189453125 49.82421875 c 0
 787.094726562 49.82421875 747.737304688 49.533203125 747.737304688 49.533203125 c 1026
-107.232421875 305.674804688 m 0
 -128.333984375 305.674804688 -175.8671875 326.038085938 -175.8671875 368.541015625 c 0
 -175.8671875 379.134765625 -173.102539062 388.78515625 -168.359375 397.000976562 c 2
 -143.359375 440.302734375 l 2
 -138.564453125 448.607421875 -131.74609375 455.447265625 -123.715820312 460.315429688 c 1
 -124.596679688 460.893554688 -166.319335938 487.10546875 -225.556640625 487.10546875 c 0
 -299.091796875 487.10546875 -367.6328125 449.681640625 -411.192382812 389.217773438 c 1
 -425.809570312 356.803710938 -434.112304688 320.125 -434.112304688 280.611328125 c 0
 -434.112304688 155.668945312 -345.956054688 25.400390625 -199.935546875 25.400390625 c 0
 -69.6318359375 25.400390625 -13.3603515625 111.400390625 20.0087890625 162.400390625 c 1
 8 111.599609375 l 1
 -25.3701171875 60.599609375 -81.6416015625 -25.400390625 -211.944335938 -25.400390625 c 0
 -254.030273438 -25.400390625 -294.024414062 -13.9287109375 -329.099609375 6.322265625 c 2
 -342.08984375 13.822265625 l 2
 -418.8828125 58.158203125 -472.103515625 144.57421875 -472.103515625 244.810546875 c 0
 -472.103515625 293.692382812 -459.395507812 338.237304688 -437.74609375 375.734375 c 2
 -412.74609375 419.036132812 l 2
 -370.790039062 491.70703125 -295.25 537.90625 -213.547851562 537.90625 c 0
 -175.365234375 537.90625 -138.381835938 526.891601562 -108.375 509.568359375 c 2
 -95.384765625 502.068359375 l 2
 -54.2333984375 478.309570312 -26.205078125 442.68359375 -26.205078125 407.326171875 c 0
 -26.205078125 395.620117188 -29.1259765625 385.326171875 -34.0634765625 376.775390625 c 2
 -59.0634765625 333.473632812 l 2
 -69.2138671875 315.892578125 -87.8896484375 305.674804688 -107.232421875 305.674804688 c 0
-69.9912109375 399.099609375 m 1
 -73.681640625 405.353515625 -80.99609375 417.74609375 -106.389648438 417.74609375 c 0
 -117.731445312 417.74609375 -128.616210938 414.303710938 -137.750976562 408.227539062 c 0
 -137.833984375 406.947265625 -137.875976562 405.651367188 -137.875976562 404.341796875 c 0
 -137.875976562 403.291992188 -137.638671875 356.475585938 -95.2236328125 356.475585938 c 0
 -84.271484375 356.475585938 -73.533203125 359.750976562 -64.435546875 365.784179688 c 0
 -64.27734375 367.657226562 -64.1962890625 369.571289062 -64.1962890625 371.525390625 c 0
 -64.1962890625 380.84375 -66.142578125 390.180664062 -69.763671875 399.313476562 c 1
 -69.9912109375 399.099609375 l 1
EndSplineSet
Fore
SplineSet
322 375 m 0xfa
 322 425 379 449 394 454 c 1
 360 482 311 499 268 499 c 0
 230 499 198 488 178 476 c 0
 128 448 74 375 74 274 c 0
 74 128 188 14 316 14 c 0
 345 14 401 20 443 60 c 0
 460 77 477 99 492 123 c 0
 499 132 520 144 530 144 c 0
 531 144 535 144 535 141 c 0
 535 140 534 139 534 137 c 0
 502 89 471 56 427 29 c 1
 457 24 474 0 474 -27 c 0
 474 -90 383 -151 299 -151 c 0
 207 -151 169 -81 169 -79 c 0
 169 -71 196 -54 208 -54 c 0
 211 -54 212 -54 213 -55 c 0
 228 -80 265 -123 334 -123 c 0
 334 -123 376 -123 399 -107 c 0
 400 -107 430 -85 430 -49 c 0xfc
 430 -19 406 1 383 1 c 0
 381 1 369 1 366 0 c 0
 338 -9 285 -14 281 -14 c 1
 141 -14 30 106 30 252 c 0
 30 301 44 416 171 489 c 0
 217 516 262 527 303 527 c 0
 389 527 482 469 482 397 c 0
 482 385 480 355 435 329 c 0
 413 316 397 314 386 314 c 0
 348 314 322 342 322 375 c 0xfa
420 342 m 0
 423 342 425 342 427 343 c 0
 432 348 438 359 438 375 c 0xfa
 438 388 434 397 434 397 c 0
 420 422 401 430 385 430 c 0
 381 430 379 430 377 429 c 0
 369.69140625 420.567382812 365.859375 408.974609375 365.859375 397.063476562 c 0
 365.859375 387.787109375 368.18359375 378.318359375 373 370 c 0
 383 353 402 342 420 342 c 0
EndSplineSet
Validated: 524289
EndChar

StartChar: h
Encoding: 104 104 14
Width: 479
Flags: W
HStem: -14.0928 21G<74.7593 102.72> 292.994 28.1758<191.325 285.416> 383.507 28.1758<75.1665 137.304> 499.495 28.1758<82.6112 149.346>
VStem: 36.8408 43.9512<31.0956 184.388 419.477 498.692> 144.451 43.9473<22.1031 262.034 267.612 291.949 305.752 398.989 412.494 490.203> 405.855 43.9512<-115.861 141.185>
AnchorPoint: "Anchora 1" 240 554 basechar 0
LayerCount: 2
Fore
SplineSet
146.022460938 441.30859375 m 0
 146.022460938 475.889648438 123.392578125 499.495117188 93.427734375 499.495117188 c 0
 90.021484375 499.495117188 87.0341796875 499.084960938 84.98828125 498.697265625 c 0
 79.8056640625 492.385742188 73.951171875 481.879882812 73.951171875 466.630859375 c 0
 73.951171875 436.115234375 102.647460938 411.682617188 128.877929688 411.682617188 c 0
 131.205078125 411.682617188 133.262695312 411.938476562 134.727539062 412.201171875 c 0
 140.333984375 418.365234375 146.022460938 430.51171875 146.022460938 441.30859375 c 0
144.252929688 262.034179688 m 1
 102.698242188 223.6875 80.7919921875 165.420898438 80.7919921875 111.137695312 c 0
 80.7919921875 84.041015625 86.34765625 57.66796875 96.966796875 39.275390625 c 0
 105.857421875 23.8779296875 118.470703125 14.8828125 131.102539062 14.1337890625 c 1
 144.170898438 33.26953125 144.451171875 62.5947265625 144.451171875 84.1162109375 c 2
 144.451171875 242.647460938 l 2
 144.451171875 249.102539062 144.374023438 255.565429688 144.252929688 262.034179688 c 1
189.974609375 463.717773438 m 0
 189.974609375 445.829101562 185.840820312 436.638671875 185.840820312 380.249023438 c 0
 185.840820312 365.856445312 185.840820312 365.856445312 187.66796875 305.751953125 c 1
 214.196289062 316.685546875 239.168945312 321.169921875 262.522460938 321.169921875 c 0
 421.764648438 321.169921875 449.806640625 106.181640625 449.806640625 -3.7978515625 c 0
 449.806640625 -40.712890625 446.850585938 -77.6474609375 440.919921875 -113.638671875 c 1
 397.07421875 -134.806640625 l 1
 402.922851562 -99.3056640625 405.85546875 -62.763671875 405.85546875 -26.2021484375 c 0
 405.85546875 13.30078125 401.680664062 130.947265625 354.961914062 211.866210938 c 0
 309.768554688 290.14453125 248.9375 292.994140625 227.522460938 292.994140625 c 0
 212.25 292.994140625 199.002929688 290.692382812 188.145507812 287.502929688 c 1
 188.301757812 280.022460938 188.3984375 272.538085938 188.3984375 265.051757812 c 2
 188.3984375 106.026367188 l 2
 188.3984375 61.125 184.794921875 25.6416015625 138.609375 -1.0234375 c 0
 122.8828125 -10.103515625 107.625976562 -14.0927734375 97.814453125 -14.0927734375 c 0
 51.7041015625 -14.0927734375 36.8408203125 45.2763671875 36.8408203125 88.7333984375 c 0
 36.8408203125 131.576171875 49.4091796875 173.610351562 72.525390625 210.158203125 c 0
 88.673828125 235.689453125 110.521484375 260.518554688 143.743164062 282.340820312 c 1
 141.889648438 343.94140625 141.889648438 343.94140625 141.889648438 357.844726562 c 0
 141.889648438 375.575195312 142.30078125 388.7421875 142.864257812 398.989257812 c 1
 127.408203125 389.951171875 110.537109375 383.506835938 93.8779296875 383.506835938 c 0
 56.455078125 383.506835938 30 414.028320312 30 444.2265625 c 0
 30 461.870117188 37.5126953125 489.40625 77.0244140625 512.21875 c 0
 99.4521484375 525.166992188 115.6484375 527.670898438 128.427734375 527.670898438 c 0
 170.263671875 527.670898438 189.974609375 496.477539062 189.974609375 463.717773438 c 0
EndSplineSet
Validated: 524289
EndChar

StartChar: i
Encoding: 105 105 15
Width: 319
Flags: W
HStem: -14.0879 28.1758<137.751 209.707> 383.912 28.1758<90.5005 137.692> 499.495 28.1758<81.487 144.854> 613.161 28.1758<73.5186 136.68> 729 28.1758<82.8424 145.938>
VStem: 30.1494 43.9521<423.571 494.179 652.587 722.46> 51.1113 43.6953<45.5361 383.395> 145.779 43.9521<417.669 488.37 648.044 716.703> 246.026 43.9521<47.0039 121.84>
AnchorPoint: "Anchora 1" 116.387 750 basechar 0
LayerCount: 2
Fore
SplineSet
145.399414062 673.95703125 m 0xfd80
 145.399414062 706.0390625 118.33984375 729 92.2646484375 729 c 0
 89.3759765625 729 86.8369140625 728.6484375 85.083984375 728.31640625 c 0
 83.12890625 726.073242188 74.1015625 714.719726562 74.1015625 696.361328125 c 0
 74.1015625 664.408203125 101.051757812 641.336914062 127.263671875 641.336914062 c 0
 130.149414062 641.336914062 132.685546875 641.6875 134.4375 642.018554688 c 0
 138.983398438 647.2421875 145.399414062 658.646484375 145.399414062 673.95703125 c 0xfd80
127.263671875 757.17578125 m 0
 164.612304688 757.17578125 189.3515625 727.8515625 189.3515625 696.361328125 c 0
 189.3515625 677.997070312 181.265625 651.051757812 142.036132812 628.40234375 c 0
 120.211914062 615.802734375 104.181640625 613.161132812 92.2646484375 613.161132812 c 0
 54.7724609375 613.161132812 30.1494140625 642.609375 30.1494140625 673.95703125 c 0
 30.1494140625 692.267578125 38.201171875 719.248046875 77.4873046875 741.930664062 c 0
 99.30859375 754.528320312 115.346679688 757.17578125 127.263671875 757.17578125 c 0
74.0478515625 461.202148438 m 0
 74.0478515625 432.61328125 105.462890625 412.087890625 127.264648438 412.087890625 c 0
 130.461914062 412.087890625 133.2890625 412.454101562 135.30078125 412.81640625 c 0
 137.934570312 416.202148438 145.779296875 426.9921875 145.779296875 445.797851562 c 0
 145.779296875 480.2421875 116.107421875 499.495117188 91.9462890625 499.495117188 c 0
 89.0517578125 499.495117188 86.4267578125 499.1875 84.458984375 498.861328125 c 0
 78.869140625 491.30078125 73.951171875 479.770507812 73.951171875 462.604492188 c 0
 73.951171875 461.872070312 73.951171875 461.540039062 74.0478515625 461.202148438 c 0
126.946289062 527.670898438 m 0
 161.784179688 527.670898438 189.731445312 502.81640625 189.731445312 468.202148438 c 0
 189.731445312 445.077148438 178.934570312 419.7734375 143.3203125 399.211914062 c 0
 120.655273438 386.125976562 104.819335938 383.912109375 92.2646484375 383.912109375 c 0
 88.736328125 383.912109375 85.2431640625 384.213867188 81.8173828125 384.7890625 c 1
 85.0625 355.120117188 88.087890625 320.6171875 88.12890625 285.147460938 c 0
 88.3408203125 102.340820312 88.3876953125 102.840820312 94.806640625 83.103515625 c 0
 110.6640625 34.447265625 151.41015625 14.087890625 186.012695312 14.087890625 c 0
 203.223632812 14.087890625 214.279296875 19.2607421875 215.111328125 19.740234375 c 0
 223.169921875 24.3935546875 246.026367188 48.8662109375 246.026367188 88.216796875 c 0
 246.026367188 99.28515625 244.162109375 110.4375 240.430664062 120.946289062 c 1
 284.084960938 145.180664062 l 1
 288.00390625 134.14453125 289.978515625 122.421875 289.978515625 110.62109375 c 0
 289.978515625 84.2939453125 280.17578125 39.9853515625 222.611328125 6.75 c 0
 194.314453125 -9.5869140625 171.157226562 -14.087890625 151.012695312 -14.087890625 c 0
 114.376953125 -14.087890625 80.4521484375 3.0166015625 60.884765625 36.908203125 c 0
 57.0244140625 43.595703125 53.73046875 50.953125 51.111328125 58.98828125 c 0xfb80
 44.3408203125 79.8095703125 44.3876953125 80.3095703125 44.177734375 262.735351562 c 0
 44.0888671875 339.174804688 30 411.244140625 30 440.221679688 c 0
 30 460.485351562 35.791015625 489.170898438 76.2783203125 512.545898438 c 0
 99.388671875 525.888671875 114.745117188 527.670898438 126.946289062 527.670898438 c 0
EndSplineSet
Validated: 524289
EndChar

StartChar: j
Encoding: 106 106 16
Width: 455
Flags: W
HStem: -213.385 28.1758<172.597 274.782> 383.946 28.1758<327.838 372.914> 499.84 28.1768<315.646 385.758> 613.161 28.1758<308.902 372.064> 729 28.1758<318.226 381.322>
VStem: 30 43.9521<-106.321 0.994897> 265.236 43.9521<423.414 495.343 653.268 722.263> 365.236 43.9521<-97.3003 364.309> 381.104 43.9521<412.648 489.414 648.044 716.703>
AnchorPoint: "Anchora 1" 349 750 basechar 0
LayerCount: 2
Fore
SplineSet
380.783203125 673.95703125 m 0xfe
 380.783203125 706.0390625 353.723632812 729 327.6484375 729 c 0
 324.759765625 729 322.220703125 728.6484375 320.467773438 728.31640625 c 0
 318.512695312 726.073242188 309.485351562 714.719726562 309.485351562 696.361328125 c 0
 309.485351562 664.408203125 336.435546875 641.336914062 362.647460938 641.336914062 c 0
 365.533203125 641.336914062 368.069335938 641.6875 369.821289062 642.018554688 c 0
 374.3671875 647.2421875 380.783203125 658.646484375 380.783203125 673.95703125 c 0xfe
362.647460938 757.17578125 m 0
 399.99609375 757.17578125 424.735351562 727.8515625 424.735351562 696.361328125 c 0
 424.735351562 677.997070312 416.649414062 651.051757812 377.419921875 628.40234375 c 0
 355.595703125 615.802734375 339.565429688 613.161132812 327.6484375 613.161132812 c 0
 290.15625 613.161132812 265.533203125 642.609375 265.533203125 673.95703125 c 0
 265.533203125 692.267578125 273.584960938 719.248046875 312.87109375 741.930664062 c 0
 334.692382812 754.528320312 350.73046875 757.17578125 362.647460938 757.17578125 c 0
363.783203125 528.016601562 m 0
 407.59375 528.016601562 425.056640625 494.23828125 425.056640625 467.202148438 c 0xfe80
 425.056640625 466.849609375 425.052734375 466.494140625 425.052734375 466.13671875 c 1
 425.180664062 466.202148438 l 1
 424.233398438 426.65234375 409.873046875 362.7734375 409.504882812 292.04296875 c 0
 409.361328125 264.513671875 409.188476562 226.62109375 409.188476562 178.1640625 c 0
 409.188476562 104.861328125 409.71484375 28.53125 409.71484375 27.01953125 c 0
 409.71484375 26.865234375 409.71484375 26.7109375 409.71484375 26.5546875 c 0
 409.71484375 -55.798828125 394.400390625 -133.3046875 306.576171875 -184.009765625 c 0
 272.40625 -203.737304688 238.41015625 -213.384765625 204.09765625 -213.384765625 c 0
 110.397460938 -213.384765625 30 -148.682617188 30 -48.6962890625 c 0
 30 -29.3076171875 33.1103515625 -19.8564453125 39.625 -1.1494140625 c 1
 82.9990234375 18.2099609375 l 1
 76.994140625 0.9677734375 73.9521484375 -7.6181640625 73.9521484375 -26.2919921875 c 0
 73.9521484375 -126.671875 156.555664062 -185.208984375 239.096679688 -185.208984375 c 0
 248.827148438 -185.208984375 276.640625 -183.97265625 299.076171875 -171.01953125 c 0
 309.09765625 -165.233398438 343.415039062 -141.098632812 358.416992188 -75.2548828125 c 0
 365.729492188 -43.1591796875 365.762695312 -12.94140625 365.762695312 4.615234375 c 0
 365.762695312 6.126953125 365.236328125 82.4033203125 365.236328125 155.759765625 c 0xff
 365.236328125 306.147460938 365.236328125 306.147460938 376.987304688 398.447265625 c 1
 356.447265625 386.676757812 340.921875 383.946289062 329.712890625 383.946289062 c 0
 294.454101562 383.946289062 265.236328125 406.9453125 265.236328125 444.797851562 c 0
 265.236328125 499.512695312 327.36328125 528.016601562 363.783203125 528.016601562 c 0
381.104492188 444.797851562 m 0
 381.104492188 474.553710938 359.774414062 499.83984375 329.076171875 499.83984375 c 0
 324.901367188 499.83984375 321.182617188 499.365234375 318.612304688 498.901367188 c 0
 312.892578125 491.243164062 309.188476562 480.96875 309.188476562 467.202148438 c 0
 309.188476562 429.765625 339.807617188 412.122070312 364.711914062 412.122070312 c 0
 366.703125 412.122070312 368.482421875 412.297851562 369.865234375 412.502929688 c 0
 372.40625 415.477539062 381.104492188 425.657226562 381.104492188 444.797851562 c 0
EndSplineSet
Validated: 524289
EndChar

StartChar: k
Encoding: 107 107 17
Width: 570
Flags: W
HStem: -14.0879 28.1758<409.241 476.89> 383.613 28.1758<117.543 162.535> 436.533 28.1758<376.107 434.234> 499.919 28.1758<106.098 170.92>
VStem: 30 43.9521<20.0367 123.208> 50.6523 47.3291<369.034 490.9> 120.588 43.9521<18.0047 156.015> 171.296 43.9521<418.348 487.689> 283.314 43.9521<106.904 238.172> 423.76 43.9521<348.951 430.589>
AnchorPoint: "Anchora 1" 250 564 basechar 0
LayerCount: 2
Fore
SplineSet
110.559570312 14.138671875 m 1xfbc0
 117.888671875 26.7705078125 120.587890625 46.654296875 120.587890625 56.951171875 c 0
 120.587890625 86.85546875 115.491210938 121.453125 108.044921875 157.73046875 c 1
 89.609375 138.946289062 73.9521484375 112.159179688 73.9521484375 74.6083984375 c 0
 73.9521484375 37.439453125 91.5751953125 15.380859375 110.559570312 14.138671875 c 1xfbc0
329.366210938 274.150390625 m 1
 338.49609375 278.272460938 423.759765625 318.607421875 423.759765625 387.456054688 c 0
 423.759765625 418.013671875 402.671875 436.533203125 383.505859375 436.533203125 c 0
 381.495117188 436.533203125 379.981445312 436.427734375 378.866210938 436.291015625 c 0
 374.403320312 431.440429688 363.16796875 418.713867188 353.678710938 390.737304688 c 0
 340.98046875 353.302734375 332.916015625 313.875 329.366210938 274.150390625 c 1
152.614257812 528.094726562 m 0
 189.225585938 528.094726562 215.248046875 499.328125 215.248046875 466.8828125 c 0
 215.248046875 448.291992188 207.044921875 421.423828125 167.990234375 398.875 c 0
 146.075195312 386.22265625 130.037109375 383.61328125 117.999023438 383.61328125 c 0
 112.768554688 383.61328125 107.766601562 384.178710938 103.026367188 385.23828125 c 1
 109 355.611328125 117.487304688 322.434570312 126.26953125 288.20703125 c 0
 133.409179688 260.37890625 140.740234375 231.845703125 147.05078125 203.84765625 c 1
 183.0390625 223.213867188 211.83984375 232.655273438 253.578125 246.337890625 c 0
 264.624023438 249.958984375 275.46484375 253.557617188 285.888671875 257.19921875 c 1
 289.849609375 297.487304688 302.912109375 369.583984375 327.81640625 408.62890625 c 0
 352.63671875 447.541015625 394.045898438 464.708984375 418.504882812 464.708984375 c 0
 449.962890625 464.708984375 467.711914062 438.224609375 467.711914062 409.860351562 c 0
 467.711914062 381.926757812 454.182617188 356.248046875 434.303710938 333.424804688 c 0
 425.81640625 323.6796875 390.162109375 285.546875 328.077148438 256.330078125 c 1
 327.536132812 246.557617188 327.266601562 236.783203125 327.266601562 227.03125 c 0
 327.266601562 204.557617188 330.38671875 107.337890625 382.513671875 50.16015625 c 0
 390.469726562 41.43359375 418.206054688 14.087890625 455.176757812 14.087890625 c 0
 470.208007812 14.087890625 478.71484375 18.49609375 478.71484375 18.49609375 c 2
 482.560546875 20.7158203125 491.26953125 29.365234375 497.512695312 41.7646484375 c 1
 540.028320312 59.1240234375 l 1
 519.704101562 18.763671875 466.106445312 -14.087890625 420.177734375 -14.087890625 c 0
 397.286132812 -14.087890625 352.840820312 -5.572265625 318.887695312 53.234375 c 0
 285.6640625 110.780273438 283.314453125 184.321289062 283.314453125 204.626953125 c 0
 283.314453125 215.786132812 283.661132812 226.977539062 284.359375 238.171875 c 1
 265.677734375 231.29296875 210.806640625 213.380859375 210.064453125 213.12890625 c 0
 195.41015625 208.162109375 171.375976562 199.598632812 150.411132812 188.512695312 c 1
 158.705078125 149.459960938 164.540039062 111.919921875 164.540039062 79.35546875 c 0
 164.540039062 70.1484375 162.98046875 39.44140625 143.336914062 17.7626953125 c 0
 142.84375 17.21875 114.102539062 -14.087890625 77.1162109375 -14.087890625 c 0
 43.189453125 -14.087890625 30 20.6455078125 30 52.2041015625 c 0xfbc0
 30 102.881835938 59.9013671875 144.176757812 103.962890625 176.791992188 c 1
 97.517578125 205.766601562 89.91015625 235.458007812 82.4873046875 264.392578125 c 0
 66.1328125 328.137695312 50.65234375 388.1484375 50.65234375 429.857421875 c 0xf7c0
 50.65234375 475.794921875 74.9716796875 497.67578125 100.436523438 512.377929688 c 0
 114.012695312 520.216796875 132.625976562 528.094726562 152.614257812 528.094726562 c 0
97.9814453125 466.639648438 m 0xf7c0
 97.9814453125 435.196289062 126.5703125 411.7890625 152.998046875 411.7890625 c 0
 155.977539062 411.7890625 158.466796875 412.114257812 160.205078125 412.438476562 c 0
 164.416992188 417.495117188 171.295898438 428.240234375 171.295898438 444.478515625 c 0
 171.295898438 477.373046875 143.017578125 499.918945312 117.615234375 499.918945312 c 0
 113.66796875 499.918945312 110.451171875 499.418945312 108.389648438 498.981445312 c 0
 107.086914062 497.41796875 105.35546875 495.024414062 103.609375 491.965820312 c 1
 104.383789062 492.270507812 l 1
 100.522460938 485.344726562 97.9814453125 475.98828125 97.9814453125 466.639648438 c 0xf7c0
EndSplineSet
Validated: 524289
EndChar

StartChar: uni029E
Encoding: 670 670 18
Width: 669
Flags: W
HStem: -212 28<604.405 609.75> -14 28<180.572 223.981> 369 28<72.5 137.885> 485 43<83.6129 181.781> 499 29<532.644 565.117>
VStem: 30 43<409.358 481.228> 120 44<23.2465 112.492> 145 44<402.704 474.263> 283 44<125.142 206 242.047 376.547> 480 44<-113.002 276 285.783 311.867 317 486.818> 584 44<374.086 488.286>
AnchorPoint: "Anchora 1" 339 580 basechar 0
LayerCount: 2
Fore
SplineSet
524 135 m 0xede0
 524 103 523 53 523 21 c 0
 523 -27 524 -79 549 -119 c 0
 570 -151 602 -175 639 -184 c 1
 600 -212 l 1
 583 -208 534 -192 503 -139 c 0
 480 -98 479 -48 479 -1 c 0
 479 31 480 81 480 113 c 0
 480 167 480 222 480 276 c 1
 429 252 384 244 324 223 c 1
 319 176 309 131 294 89 c 0
 278 42 255 18 226 1 c 0
 205 -11 188 -14 176 -14 c 0
 141 -14 120 15 120 48 c 0xeee0
 120 88 155 167 282 224 c 1
 283 235 283 246 283 257 c 0
 283 292 277 390 216 455 c 0
 209 462 197 473 182 482 c 1
 186 474 189 464 189 453 c 0
 189 429 177 404 143 384 c 0
 120 371 104 369 92 369 c 0
 53 369 30 399 30 431 c 0
 30 448 37 480 84 507 c 0
 113 523 136 528 158 528 c 0xf5e0
 255 528 327 418 327 279 c 0
 327 267 326 254 326 242 c 1
 386 264 433 273 480 294 c 1
 480 326 480 358 480 390 c 0
 480 391 480 401 480 402 c 0
 480 448 484 486 535 515 c 0
 550 524 565 528 574 528 c 0
 609 528 628 489 628 449 c 0
 628 386 587 337 524 299 c 1
 524 244 524 190 524 135 c 0xede0
164 70 m 0
 164 36 188 14 211 14 c 0
 215 14 218 15 219 15 c 0
 225 20 239 36 251 70 c 0
 265 112 276 158 281 206 c 1
 236 187 203 164 179 121 c 0
 170 106 164 88 164 70 c 0
73 454 m 0
 73 421 100 397 127 397 c 0
 130 397 133 397 135 398 c 0
 137 401 145 412 145 431 c 0
 145 463 120 485 90 485 c 0xf5e0
 85 485 85 485 82 482 c 0
 77 474 73 464 73 454 c 0
584 426 m 0
 584 471 561 498 541 499 c 1xece0
 537 495 532 487 528 472 c 0
 524 455 524 425 524 424 c 0
 524 413 524 413 524 413 c 2
 524 381 524 349 524 317 c 1
 553 337 584 370 584 426 c 0
EndSplineSet
Validated: 1
EndChar

StartChar: l
Encoding: 108 108 19
Width: 395
Flags: W
HStem: -12.0029 28.1758<151.889 242.449> 669.912 28.1758<89.3369 137.28> 786.287 28.1758<82.5392 148.65>
VStem: 30 43.9521<84.2009 196.21 196.508 672.439 709.46 729.365 729.509 779.759> 146.52 43.9521<704.977 775.258> 321.941 43.9521<86.316 175.565>
AnchorPoint: "Anchora 1" 112 828 basechar 0
LayerCount: 2
Fore
SplineSet
128.025390625 814.462890625 m 0
 169.1875 814.462890625 190.471679688 782.0078125 190.471679688 754.404296875 c 0
 190.471679688 735.25390625 182.095703125 707.912109375 142.712890625 685.174804688 c 0
 120.823242188 672.536132812 104.771484375 669.912109375 92.7568359375 669.912109375 c 0
 85.9169921875 669.912109375 79.65234375 670.807617188 73.951171875 672.439453125 c 1
 73.951171875 607.088867188 73.9521484375 196.209960938 73.9521484375 196.209960938 c 2
 73.9521484375 152.872070312 73.9794921875 66.685546875 152.612304688 29.0732421875 c 0
 170.865234375 20.341796875 191.022460938 16.1728515625 210.138671875 16.1728515625 c 0
 235.038085938 16.1728515625 254.735351562 23.5888671875 263.96875 28.919921875 c 0
 288.68359375 43.189453125 321.94140625 84.1806640625 321.94140625 143.946289062 c 0
 321.94140625 153.75 320.978515625 163.576171875 319.004882812 173.223632812 c 1
 362.84375 196.791992188 l 1
 364.889648438 186.791015625 365.893554688 176.5859375 365.893554688 166.350585938 c 0
 365.893554688 103.723632812 331.567382812 50.6279296875 271.46875 15.9296875 c 0
 235.388671875 -4.9013671875 203.291015625 -12.0029296875 175.139648438 -12.0029296875 c 0
 155.588867188 -12.0029296875 89.5751953125 -7.1875 53.6162109375 55.0947265625 c 0
 30.05078125 95.9111328125 30 144.395507812 30 173.427734375 c 0
 30 658.748046875 30 658.748046875 30 658.748046875 c 2
 30.2470703125 668.499023438 30.2763671875 712.447265625 30.279296875 726.959960938 c 0
 30.197265625 727.771484375 30.1298828125 728.5859375 30.0771484375 729.403320312 c 2
 30.2802734375 729.508789062 l 2
 30.2802734375 730.030273438 30.2802734375 730.462890625 30.2802734375 730.797851562 c 0
 30.2802734375 747.407226562 37.1279296875 775.876953125 77.5546875 799.216796875 c 0
 99.578125 811.932617188 115.5859375 814.462890625 128.025390625 814.462890625 c 0
74.2314453125 749.689453125 m 0
 77.3876953125 719.916992188 100.774414062 698.087890625 127.755859375 698.087890625 c 0
 130.75 698.087890625 133.240234375 698.416015625 134.967773438 698.739257812 c 0
 137.514648438 701.765625 146.51953125 713.150390625 146.51953125 732 c 0
 146.51953125 760.552734375 122.762695312 786.287109375 93.0263671875 786.287109375 c 0
 89.8671875 786.287109375 87.2333984375 785.952148438 85.3896484375 785.616210938 c 0
 79.2880859375 778.143554688 74.232421875 766.913085938 74.232421875 753.202148438 c 0
 74.232421875 752.462890625 74.2314453125 751.262695312 74.2314453125 749.689453125 c 0
EndSplineSet
Validated: 524289
EndChar

StartChar: m
Encoding: 109 109 20
Width: 875
Flags: W
HStem: -13.7812 28.1758<215.515 276.815 528.989 565.338> 413.353 28.1758<75.1592 137.64> 499.427 28.1758<354.005 437.29 614.278 685.205> 529.989 28.1934<84.797 128.49>
VStem: 30 43.9521<454.179 523.475> 158.203 43.9521<38.4164 277.339> 299.281 43.9521<39.5918 295.616> 441.479 43.9609<57.6544 304.751> 589.332 43.9521<46.2389 290.708> 801.598 43.9521<111.253 363.26>
AnchorPoint: "Anchora 1" 529 570 basechar 0
LayerCount: 2
Fore
SplineSet
146.208984375 474.676757812 m 0
 146.208984375 507.407226562 121.182617188 529.27734375 94.2734375 529.989257812 c 0
 90.3125 529.888671875 86.92578125 529.374023438 84.69140625 528.922851562 c 0
 78.0703125 520.875976562 73.9521484375 508.94921875 73.9521484375 496.637695312 c 2
 73.9521484375 496.516601562 l 2
 73.9521484375 465.04296875 103.404296875 441.528320312 128.137695312 441.528320312 c 0
 130.887695312 441.528320312 133.327148438 441.831054688 135.051757812 442.141601562 c 0
 137.157226562 444.561523438 146.208984375 456.047851562 146.208984375 474.676757812 c 0
202.155273438 142.67578125 m 0
 202.155273438 86.994140625 212.564453125 14.39453125 266.8515625 14.39453125 c 0
 269.662109375 14.39453125 272.158203125 14.64453125 274.030273438 14.927734375 c 0
 296.192382812 41.2724609375 299.28125 96.486328125 299.28125 125.274414062 c 0
 299.28125 240.650390625 262.239257812 358.137695312 253.857421875 378.940429688 c 1
 226.279296875 320.857421875 202.155273438 242.625 202.155273438 142.67578125 c 0
529.029296875 387.271484375 m 1
 518.459960938 362.775390625 485.440429688 278.825195312 485.440429688 185.590820312 c 0
 485.440429688 150.63671875 488.272460938 88.546875 510.4140625 50.1982421875 c 0
 522.21484375 29.7578125 539.553710938 16.9580078125 561.313476562 16.9580078125 c 0
 561.524414062 16.9580078125 561.732421875 16.9638671875 561.935546875 16.9638671875 c 0
 587.197265625 50.6630859375 589.33203125 126.797851562 589.33203125 151.59375 c 0
 589.33203125 218.202148438 569.090820312 313.346679688 529.029296875 387.271484375 c 1
93.138671875 413.352539062 m 0
 57.1796875 413.352539062 30 442.947265625 30 474.112304688 c 2
 30 474.233398438 l 2
 30 484.446289062 31.62890625 516.369140625 76.689453125 542.384765625 c 0
 98.4755859375 554.962890625 114.333007812 557.834960938 127.938476562 558.182617188 c 0
 128.341796875 558.182617188 128.7421875 558.172851562 129.142578125 558.172851562 c 0
 129.649414062 558.172851562 130.15234375 558.182617188 130.653320312 558.182617188 c 0
 175 558.182617188 232.318359375 513.919921875 269.967773438 456.07421875 c 1
 305.720703125 494.081054688 364.327148438 527.602539062 417.083984375 527.602539062 c 0
 468.677734375 527.602539062 509.4140625 500.159179688 541.40234375 459.735351562 c 1
 555.063476562 475.331054688 571.798828125 490.475585938 596.069335938 504.487304688 c 0
 625.375976562 521.408203125 651.087890625 527.34375 672.665039062 527.34375 c 0
 763.95703125 527.34375 845.549804688 412.090820312 845.549804688 257.384765625 c 0
 845.549804688 194.063476562 835.25390625 101.125976562 774.688476562 7.619140625 c 1
 733.529296875 -7.39453125 l 1
 790.485351562 80.5380859375 801.59765625 172.385742188 801.59765625 234.98046875 c 0
 801.59765625 395.50390625 714.59765625 499.16796875 637.666015625 499.16796875 c 0
 619.143554688 499.16796875 607.967773438 494.037109375 603.569335938 491.497070312 c 0
 601.114257812 490.080078125 580.198242188 477.282226562 556.158203125 439.295898438 c 1
 560.057617188 433.396484375 563.807617188 427.306640625 567.413085938 421.0625 c 0
 611.255859375 345.125 633.284179688 244.4765625 633.284179688 173.998046875 c 0
 633.284179688 126.767578125 627.603515625 62.42578125 600.07421875 27.8076171875 c 0
 594.536132812 20.8427734375 586.393554688 11.8974609375 569.456054688 2.119140625 c 0
 549.541992188 -9.37890625 535.869140625 -11.2177734375 526.314453125 -11.2177734375 c 0
 496.889648438 -11.2177734375 479.213867188 4.236328125 467.112304688 25.1982421875 c 0
 444.306640625 64.6982421875 441.479492188 126.955078125 441.479492188 162.370117188 c 0
 441.479492188 167.08984375 441.529296875 171.33203125 441.588867188 174.98046875 c 0
 442.642578125 239.248046875 466.104492188 343.401367188 510.682617188 417.408203125 c 1
 477.127929688 466.310546875 433.151367188 499.426757812 382.084960938 499.426757812 c 0
 352.748046875 499.426757812 332.7109375 489.284179688 314.590820312 473.04296875 c 0
 302.737304688 462.416992188 296.813476562 454.434570312 283.533203125 433.12890625 c 1
 289.734375 421.524414062 295.330078125 409.264648438 300.139648438 396.415039062 c 0
 301.108398438 393.829101562 343.233398438 272.41796875 343.233398438 147.678710938 c 0
 343.233398438 48.6357421875 312.814453125 19.009765625 281.75390625 1.0771484375 c 0
 259.495117188 -11.7744140625 244.176757812 -13.78125 231.852539062 -13.78125 c 0
 198.778320312 -13.78125 158.203125 5.818359375 158.203125 120.271484375 c 0
 158.203125 252.663085938 200.287109375 348.76953125 238.357421875 411.58203125 c 1
 227.415039062 431.459960938 210.912109375 456.063476562 187.61328125 479.165039062 c 1
 176.49609375 441.447265625 127.0546875 413.352539062 93.138671875 413.352539062 c 0
EndSplineSet
Validated: 524289
EndChar

StartChar: n
Encoding: 110 110 21
Width: 677
Flags: W
HStem: -14.0879 28.1758<202.466 259.362> 356.741 28.1758<73.281 137.603> 472.49 28.9785<82.4145 137.563> 498.721 28.1758<379.346 471.491>
VStem: 30 43.9521<396.724 466.532> 150.524 43.9521<32.0506 241.376> 276.913 43.9521<32.935 274.716> 603.243 43.9521<96.2029 350.535>
AnchorPoint: "Anchora 1" 411 550 basechar 0
LayerCount: 2
Fore
SplineSet
146.551757812 418.331054688 m 0xef
 146.551757812 451.993164062 118.416015625 472.490234375 92.2998046875 472.490234375 c 0
 87.4052734375 472.490234375 87.4052734375 472.490234375 84.666015625 471.862304688 c 0
 82.4697265625 469.329101562 73.9521484375 458.366210938 73.9521484375 440.703125 c 2
 73.9521484375 440.581054688 l 2
 73.9521484375 408.568359375 100.3515625 384.916992188 127.80859375 384.916992188 c 0
 130.779296875 384.916992188 133.380859375 385.284179688 135.15625 385.625 c 0
 140.469726562 391.655273438 146.551757812 403.36328125 146.551757812 418.331054688 c 0xef
92.8095703125 356.741210938 m 0
 54.0576171875 356.741210938 30 386.852539062 30 418.176757812 c 2
 30 418.298828125 l 2
 30 435.759765625 37.6083984375 462.588867188 76.7197265625 485.169921875 c 0
 100.620117188 498.96875 117.759765625 501.46875 132.764648438 501.46875 c 0xef
 142.361328125 501.46875 203.85546875 498.006835938 254.40234375 414.817382812 c 1
 288.41015625 459.915039062 321.23046875 482.979492188 345.205078125 496.821289062 c 0
 382.328125 518.25390625 416.794921875 526.896484375 447.87109375 526.896484375 c 0
 556.608398438 526.896484375 647.1953125 413.637695312 647.1953125 240.08203125 c 0
 647.1953125 204.095703125 643.647460938 110.25 591.020507812 8.576171875 c 1
 548.610351562 -8.576171875 l 1
 599.2421875 89.2421875 603.243164062 182.2421875 603.243164062 217.677734375 c 0
 603.243164062 395.959960938 507.833984375 498.720703125 412.872070312 498.720703125 c 0xdf
 376.0703125 498.720703125 344.23046875 487.29296875 306.260742188 442.903320312 c 0
 292.84375 427.21875 280.1015625 408.790039062 268.500976562 388.7890625 c 1
 273.251953125 378.95703125 277.833984375 368.266601562 282.186523438 356.642578125 c 0
 307.217773438 289.740234375 320.865234375 186.291992188 320.865234375 133.354492188 c 0
 320.865234375 44.9091796875 293.989257812 17.4287109375 263.845703125 0.0244140625 c 0
 242.408203125 -12.3525390625 228.063476562 -14.087890625 216.881835938 -14.087890625 c 0
 188.05078125 -14.087890625 150.524414062 2.275390625 150.524414062 104.047851562 c 0
 150.524414062 167.37890625 169.678710938 256.197265625 206.887695312 334.951171875 c 0
 212.076171875 345.93359375 217.59765625 356.713867188 223.5 367.237304688 c 1
 215.563476562 383.233398438 203.926757812 403.439453125 187.715820312 422.111328125 c 1
 176.171875 384.84375 127.005859375 356.741210938 92.8095703125 356.741210938 c 0
194.4765625 126.452148438 m 0
 194.4765625 80.869140625 202.84375 14.087890625 251.880859375 14.087890625 c 0
 253.362304688 14.087890625 254.736328125 14.169921875 255.934570312 14.28515625 c 0
 264.245117188 25.2998046875 276.913085938 51.79296875 276.913085938 110.950195312 c 0
 276.913085938 162.3359375 263.581054688 263.82421875 239.459960938 329.897460938 c 1
 209.990234375 259.364257812 194.4765625 182.359375 194.4765625 126.452148438 c 0
EndSplineSet
Validated: 524289
EndChar

StartChar: uni0569
Encoding: 1385 1385 22
Width: 770
Flags: W
HStem: -14.0879 28.1758<202.144 259.05 491.607 581.978> 281.676 28.1758<486.742 629.111 679.434 706.884> 356.921 28.1758<73.7241 136.639> 472.688 28.9717<82.7361 152.623> 498.436 28.1758<385.995 491.737>
VStem: 30 43.9512<397.43 465.852> 150.2 43.9512<32.0959 241.389> 276.606 43.9512<32.9463 274.429> 361.771 43.9512<85.4757 220.071> 636.728 43.9365<71.6891 178.839 178.851 193.567 193.572 275.271>
AnchorPoint: "Anchora 1" 429 550 basechar 0
LayerCount: 2
Fore
SplineSet
194.151367188 126.639648438 m 0xe7c0
 194.151367188 80.9150390625 202.5390625 14.087890625 251.5703125 14.087890625 c 0
 253.051757812 14.087890625 254.424804688 14.1689453125 255.622070312 14.28515625 c 0
 263.936523438 25.302734375 276.606445312 51.8046875 276.606445312 111.000976562 c 0
 276.606445312 211.099609375 245.756835938 309.787109375 239.3828125 329.001953125 c 1
 222.413085938 288.836914062 194.151367188 209.549804688 194.151367188 126.639648438 c 0xe7c0
405.721679688 165.067382812 m 0
 405.721679688 78.662109375 474.802734375 13.8662109375 549.536132812 13.8662109375 c 0
 574.380859375 13.8662109375 589.823242188 20.6201171875 591.25390625 21.4462890625 c 0
 592.008789062 21.8818359375 619.579101562 38.98046875 631.19921875 98.9404296875 c 0
 636.689453125 127.272460938 636.71484375 154.711914062 636.71484375 171.163085938 c 2
 636.71484375 178.838867188 l 1
 636.71484375 178.838867188 636.727539062 196.086914062 636.727539062 196.08984375 c 0
 636.727539062 221.590820312 636.455078125 249.0703125 633.586914062 276.559570312 c 0
 632.677734375 276.610351562 567.63671875 281.67578125 542.672851562 281.67578125 c 0
 527.708007812 281.67578125 480.137695312 280.357421875 452.502929688 264.40234375 c 0
 428.53515625 250.565429688 405.721679688 212.595703125 405.721679688 165.067382812 c 0
253.083984375 414.3984375 m 1
 302.5 481.360351562 386.614257812 526.611328125 459.84375 526.611328125 c 0
 553.864257812 526.611328125 638.810546875 458.93359375 667.561523438 354.49609375 c 0
 672.078125 338.071289062 675.044921875 321.201171875 676.991210938 304.336914062 c 1
 686.995117188 303.868164062 697.481445312 303.568359375 708.701171875 303.568359375 c 0
 719.342773438 303.568359375 729.969726562 303.823242188 740.563476562 304.331054688 c 1
 706.883789062 276.188476562 l 1
 697.723632812 275.749023438 688.572265625 275.4921875 679.43359375 275.416015625 c 1
 680.547851562 255.833007812 680.678710938 236.614257812 680.678710938 218.48828125 c 2
 680.6640625 201.243164062 l 1
 680.6640625 199.658203125 l 2
 680.6640625 199.657226562 680.666015625 193.567382812 680.666015625 193.567382812 c 2
 680.666015625 193.424804688 680.666015625 193.282226562 680.666015625 193.137695312 c 0
 680.666015625 116.375976562 669.497070312 49.298828125 598.75390625 8.455078125 c 0
 567.37890625 -9.658203125 541.568359375 -14.3095703125 514.536132812 -14.3095703125 c 0
 428.326171875 -14.3095703125 361.770507812 57.109375 361.770507812 142.663085938 c 0
 361.770507812 239.981445312 445.440429688 285.640625 501.041992188 300.556640625 c 0
 524.41015625 306.826171875 549.051757812 309.8515625 577.672851562 309.8515625 c 0
 595.700195312 309.8515625 612.309570312 308.7890625 629.111328125 307.548828125 c 1
 605.375 432.8359375 509.615234375 498.435546875 424.84375 498.435546875 c 0xefc0
 388.291015625 498.435546875 363.875976562 487.67578125 349.107421875 479.149414062 c 0
 329.815429688 468.01171875 310.384765625 448.932617188 302.32421875 439.44921875 c 0
 292.200195312 427.545898438 280.25 409.801757812 268.109375 388.059570312 c 1
 273.146484375 378.1015625 277.767578125 367.612304688 281.875976562 356.642578125 c 0
 282.752929688 354.298828125 320.557617188 245.360351562 320.557617188 133.405273438 c 0
 320.557617188 44.931640625 293.696289062 17.439453125 263.533203125 0.0244140625 c 0
 242.095703125 -12.3525390625 227.751953125 -14.087890625 216.5703125 -14.087890625 c 0
 187.716796875 -14.087890625 150.200195312 2.3046875 150.200195312 104.235351562 c 0
 150.200195312 160.666015625 163.185546875 219.627929688 181.721679688 272.62890625 c 0
 193.856445312 307.32421875 208.116210938 339.235351562 223.005859375 366.555664062 c 1
 215.888671875 380.208007812 204.118164062 400.275390625 186.286132812 420.459960938 c 1
 174.130859375 384.421875 126.098632812 356.920898438 92.328125 356.920898438 c 0
 55.1201171875 356.920898438 30 385.5 30 417.868164062 c 2
 30 417.989257812 l 2
 30 425.220703125 30.046875 458.3671875 77.0810546875 485.522460938 c 0
 100.641601562 499.125 117.625976562 501.66015625 132.236328125 501.66015625 c 0xf7c0
 173.008789062 501.66015625 218.796875 468.052734375 253.083984375 414.3984375 c 1
145.580078125 418.029296875 m 0
 145.580078125 451.469726562 117.59375 472.688476562 91.8251953125 472.688476562 c 0xf7c0
 87.31640625 472.688476562 87.31640625 472.688476562 85.0146484375 472.17578125 c 0
 82.40234375 469.154296875 73.951171875 458.014648438 73.951171875 440.393554688 c 2
 73.951171875 440.272460938 l 2
 73.951171875 407.405273438 101.30078125 385.096679688 127.328125 385.096679688 c 0
 130.188476562 385.096679688 132.701171875 385.442382812 134.44140625 385.770507812 c 0
 136.536132812 388.169921875 145.580078125 399.596679688 145.580078125 418.029296875 c 0
EndSplineSet
Validated: 524289
EndChar

StartChar: eng
Encoding: 331 331 23
Width: 680
Flags: W
HStem: -212.696 28.1758<240.329 395.686> -14.0879 28.1758<202.009 258.868> 357.187 28.1758<73.1011 136.459> 472.692 28.9707<82.668 142.224> 498.658 28.1758<378.94 471.776>
VStem: 30 43.9512<396.683 466.3> 150.033 43.9512<32.0531 242.79> 276.43 43.9512<32.9409 276.041> 606.804 43.9512<29.197 340.939>
AnchorPoint: "Anchora 1" 399 550 basechar 0
LayerCount: 2
Fore
SplineSet
145.328125 418.15234375 m 0xf780
 145.328125 451.501953125 117.421875 472.692382812 91.69921875 472.692382812 c 0
 87.2119140625 472.692382812 87.2119140625 472.692382812 84.9482421875 472.190429688 c 0
 82.39453125 469.231445312 73.951171875 458.11328125 73.951171875 440.528320312 c 0
 73.951171875 408.4921875 100.279296875 385.362304688 127.200195312 385.362304688 c 0
 130.006835938 385.362304688 132.495117188 385.676757812 134.237304688 385.99609375 c 0
 136.251953125 388.30078125 145.328125 399.709960938 145.328125 418.15234375 c 0xf780
92.2001953125 357.186523438 m 0
 54.001953125 357.186523438 30 386.75390625 30 418.124023438 c 0
 30 425.328125 30.03515625 458.418945312 77.015625 485.54296875 c 0
 100.557617188 499.134765625 117.517578125 501.663085938 132.1015625 501.663085938 c 0xf780
 152.346679688 501.663085938 172.02734375 493.76171875 191.732421875 480.0859375 c 0
 213.567382812 464.931640625 235.051757812 442.314453125 253.219726562 413.8671875 c 1
 287.373046875 459.353515625 320.466796875 482.602539062 344.5625 496.513671875 c 0
 381.987304688 518.12109375 416.7734375 526.833984375 448.313476562 526.833984375 c 0
 503.415039062 526.833984375 563.5 496.495117188 602.326171875 429.245117188 c 0
 614.5390625 408.092773438 624.6171875 383.23828125 631.65234375 354.42578125 c 0
 644.40625 302.137695312 650.754882812 262.322265625 650.754882812 207.274414062 c 0
 650.754882812 85.1875 636.083007812 -72.546875 478.6328125 -163.451171875 c 0
 422.108398438 -196.084960938 361.515625 -212.696289062 298.6015625 -212.696289062 c 0
 256.443359375 -212.696289062 215.067382812 -205.125 177.559570312 -190.546875 c 1
 217.899414062 -163.19140625 l 1
 254.327148438 -177.349609375 294.373046875 -184.520507812 333.6015625 -184.520507812 c 0
 370.07421875 -184.520507812 448.666015625 -177.657226562 507.051757812 -124.15234375 c 0
 606.107421875 -33.3984375 606.803710938 120.887695312 606.803710938 184.870117188 c 0
 606.803710938 239.388671875 600.56640625 278.555664062 587.85546875 330.669921875 c 0
 558.161132812 452.283203125 474.54296875 498.658203125 413.313476562 498.658203125 c 0xef80
 375.268554688 498.658203125 343.125 486.576171875 305.357421875 442.352539062 c 0
 291.979492188 426.6875 279.295898438 408.3125 267.758789062 388.390625 c 1
 309.604492188 305.95703125 320.380859375 172.278320312 320.380859375 133.38671875 c 0
 320.380859375 44.9169921875 293.4921875 17.4267578125 263.350585938 0.0244140625 c 0
 241.915039062 -12.3515625 227.569335938 -14.087890625 216.387695312 -14.087890625 c 0
 187.629882812 -14.087890625 150.033203125 2.2021484375 150.033203125 104.08984375 c 0
 150.033203125 166.661132812 168.904296875 255.3125 205.989257812 334.146484375 c 0
 211.206054688 345.237304688 216.765625 356.127929688 222.716796875 366.758789062 c 1
 216.25390625 379.125976562 204.3203125 399.90234375 186.06640625 420.697265625 c 1
 173.97265625 384.696289062 125.943359375 357.186523438 92.2001953125 357.186523438 c 0
193.984375 126.494140625 m 0
 193.984375 80.9716796875 202.33203125 14.087890625 251.387695312 14.087890625 c 0
 252.869140625 14.087890625 254.2421875 14.169921875 255.440429688 14.28515625 c 0
 263.754882812 25.3037109375 276.4296875 51.8095703125 276.4296875 110.982421875 c 0
 276.4296875 162.365234375 263.115234375 263.798828125 238.959960938 329.934570312 c 1
 209.392578125 259.140625 193.984375 181.938476562 193.984375 126.494140625 c 0
EndSplineSet
Validated: 524289
EndChar

StartChar: o
Encoding: 111 111 24
Width: 662
Flags: W
HStem: -14.2539 28.1758<263.942 395.377> 302.307 28.1758<349.81 412.813> 499.854 28.1758<226.902 334.634> 539.158 20G<438.206 479.021>
VStem: 30 43.9521<185.323 363.39> 304.289 43.9512<342.667 412.126> 420.398 43.9834<336.675 406.351> 588.624 43.9512<194.382 383.954>
AnchorPoint: "Anchora 1" 331 590 basechar 0
LayerCount: 2
Fore
SplineSet
30 263.076171875 m 0
 30 433.854492188 194.509765625 528.030273438 303.655273438 528.030273438 c 0
 414.453125 528.030273438 464.381835938 445.387695312 464.381835938 390.1953125 c 0
 464.3515625 389.737304688 464.34375 389.286132812 464.34375 388.83984375 c 0
 464.34375 388.41796875 464.350585938 387.999023438 464.350585938 387.581054688 c 0
 464.350585938 329.310546875 398.569335938 302.306640625 367.051757812 302.306640625 c 0
 332.567382812 302.306640625 304.2890625 328.677734375 304.2890625 362.291015625 c 0
 304.2890625 414.73046875 364.5546875 441.830078125 390.655273438 445.27734375 c 1
 364.529296875 477.188476562 322.203125 499.854492188 268.65625 499.854492188 c 0
 154.173828125 499.854492188 73.9521484375 400.78125 73.9521484375 285.48046875 c 0
 73.9521484375 161.296875 179.620117188 13.921875 345.350585938 13.921875 c 0
 512.471679688 13.921875 588.624023438 173.313476562 588.624023438 280.182617188 c 0
 588.624023438 400.751953125 513.48828125 492.659179688 427.4453125 531.98828125 c 1
 468.22265625 559.158203125 l 1
 489.818359375 549.287109375 632.575195312 477.421875 632.575195312 302.5859375 c 0
 632.575195312 131.65625 474.875 -14.25390625 310.348632812 -14.25390625 c 0
 132.911132812 -14.25390625 30 140.169921875 30 263.076171875 c 0
420.3984375 365.176757812 m 0
 420.3984375 398.517578125 390.0234375 417.79296875 366.380859375 417.79296875 c 0
 363.39453125 417.79296875 360.854492188 417.470703125 359.049804688 417.14453125 c 0
 354.567382812 411.591796875 348.240234375 400.885742188 348.240234375 384.6953125 c 0
 348.240234375 351.094726562 378.479492188 330.482421875 402.051757812 330.482421875 c 0
 405.544921875 330.482421875 408.189453125 330.8125 409.990234375 331.153320312 c 0
 412.84375 334.770507812 420.3984375 345.232421875 420.3984375 365.176757812 c 0
EndSplineSet
Validated: 524289
EndChar

StartChar: p
Encoding: 112 112 25
Width: 726
Flags: W
HStem: -214.088 28.1758<218.36 267.455> 83.5723 28.1758<483.222 572.482> 358.166 28.1758<73.2834 138.493> 473.187 28.5352<82.3987 140.977> 499.142 28.1758<386.427 499.27>
VStem: 30 43.9521<397.994 467.275> 131.328 43.9521<-144.12 165.995> 316.086 43.9521<-107.59 212.67> 652.121 43.9521<191.181 360.119>
AnchorPoint: "Anchora 1" 410 544 basechar 0
LayerCount: 2
Back
SplineSet
78.5810546875 496.202148438 m 0xfb80
 78.5810546875 468.125976562 104.60546875 443.708007812 129.54296875 442.166992188 c 0
 134.283203125 441.874023438 138.219726562 443.163085938 140.694335938 443.73828125 c 0
 146.249023438 450.712890625 150.596679688 460.440429688 150.596679688 473.797851562 c 0
 150.596679688 510.608398438 119.025390625 534.72265625 88.6552734375 528.923828125 c 1
 83.5087890625 522.3828125 78.5810546875 511.99609375 78.5810546875 496.202148438 c 0xfb80
324.46875 448.908203125 m 1
 285.875 414.446289062 185.708984375 300.69140625 185.708984375 48.1767578125 c 0
 185.708984375 -59.3974609375 200.677734375 -104.104492188 215.798828125 -130.294921875 c 0
 239.357421875 -171.100585938 274.501953125 -185.635742188 298.529296875 -185.635742188 c 0
 303.170898438 -185.635742188 307.216796875 -185.123046875 309.970703125 -184.631835938 c 0
 321.719726562 -169.431640625 324.46875 -145.798828125 324.46875 -127.025390625 c 2
 324.46875 448.908203125 l 1
133.109375 558.010742188 m 0
 168.834960938 558.010742188 194.547851562 530.78125 194.547851562 496.202148438 c 0
 194.547851562 446.142578125 134.591796875 416.428710938 97.2978515625 414.06640625 c 1
 97.10546875 413.912109375 l 2
 96.3955078125 413.912109375 95.689453125 413.944335938 94.9892578125 413.944335938 c 0
 93.25390625 413.87109375 91.5146484375 413.836914062 89.759765625 413.836914062 c 0
 23.6103515625 413.836914062 -51.84765625 477.860351562 -51.84765625 571.573242188 c 0
 -51.84765625 609.625 -39.533203125 646.134765625 -16.8564453125 678.600585938 c 0
 23.7431640625 736.728515625 103.413085938 785.73046875 184.388671875 785.73046875 c 0
 269.96875 785.73046875 343.950195312 732.932617188 362.780273438 636.150390625 c 0
 368.124023438 608.626953125 368.419921875 580.5 368.419921875 552.758789062 c 2
 368.419921875 496.513671875 l 1
 412.520507812 518.892578125 453.952148438 527.670898438 492.584960938 527.670898438 c 0
 612.66015625 527.670898438 712.287109375 438.328125 712.287109375 319.795898438 c 0
 712.287109375 265.174804688 686.4375 186.712890625 598.0234375 135.666992188 c 0
 557.317382812 112.165039062 518.981445312 103.116210938 481.28125 103.116210938 c 0
 455.672851562 103.116210938 430.890625 107.780273438 407.979492188 117.037109375 c 1
 448.424804688 144.349609375 l 1
 470.271484375 135.524414062 493.668945312 131.291992188 516.28125 131.291992188 c 0
 551.139648438 131.291992188 577.060546875 140.883789062 590.5234375 148.657226562 c 0
 627.118164062 169.78515625 668.3359375 227.4296875 668.3359375 297.391601562 c 0
 668.3359375 415.825195312 566.946289062 499.495117188 457.584960938 499.495117188 c 0
 422.01953125 499.495117188 391.486328125 490.836914062 368.419921875 479.392578125 c 1
 368.419921875 -104.62109375 l 2
 368.419921875 -154.328125 350.72265625 -179.518554688 318.37109375 -198.196289062 c 0
 311.666992188 -202.06640625 291.325195312 -213.811523438 263.529296875 -213.811523438 c 0
 228.619140625 -213.811523438 190.650390625 -193.100585938 167.48828125 -145.891601562 c 0
 149.40234375 -108.958984375 141.7578125 -52.3427734375 141.7578125 25.7724609375 c 0xfd80
 141.7578125 139.423828125 164.366210938 356.618164062 324.46875 469.9921875 c 1
 324.46875 530.354492188 l 2
 324.46875 575.254882812 324.149414062 626.075195312 296.4921875 673.979492188 c 0
 264.196289062 729.91796875 206.818359375 757.5546875 149.388671875 757.5546875 c 0
 115.397460938 757.5546875 88.0224609375 747.701171875 71.978515625 738.438476562 c 0
 32.9013671875 715.876953125 -7.896484375 661.145507812 -7.896484375 593.977539062 c 0
 -7.896484375 582.913085938 -7.833984375 530.008789062 35.4609375 485.09765625 c 1
 40.318359375 516.943359375 65.5830078125 533.807617188 80.4052734375 542.365234375 c 0
 104.122070312 556.05859375 120.142578125 558.009765625 133.109375 558.010742188 c 0
EndSplineSet
Fore
SplineSet
146.140625 418.413085938 m 0xf780
 146.140625 454.5625 118.701171875 473.186523438 90.2744140625 473.186523438 c 0
 88.8720703125 473.186523438 87.8564453125 473.186523438 84.78515625 472.590820312 c 0
 79.744140625 466.311523438 73.9521484375 455.89453125 73.9521484375 441.178710938 c 0
 73.9521484375 410.68359375 99.46875 386.341796875 128.655273438 386.341796875 c 0
 131.375 386.341796875 133.80078125 386.641601562 135.579101562 386.951171875 c 0
 140.64453125 393.196289062 146.140625 403.426757812 146.140625 418.413085938 c 0xf780
175.280273438 -8.16015625 m 0
 175.280273438 -57.892578125 175.280273438 -185.912109375 256.762695312 -185.912109375 c 0
 260.415039062 -185.912109375 263.502929688 -185.428710938 265.387695312 -185.041015625 c 0
 311.733398438 -137.340820312 316.0859375 -1.21875 316.0859375 47.994140625 c 0
 316.0859375 162.643554688 285.106445312 263.376953125 243.653320312 338.05078125 c 1
 197.551757812 229.58203125 175.280273438 110.663085938 175.280273438 -8.16015625 c 0
253.743164062 414.690429688 m 1
 303.135742188 480.010742188 378.55859375 527.317382812 464.961914062 527.317382812 c 0
 592.258789062 527.317382812 696.073242188 414.2734375 696.073242188 284.401367188 c 0
 696.073242188 241.876953125 683.775390625 159.618164062 596.848632812 109.431640625 c 0
 562.990234375 89.8828125 533.454101562 83.572265625 506.502929688 83.572265625 c 0
 474.717773438 83.572265625 444.890625 93.6142578125 420.670898438 111.322265625 c 1
 462.602539062 137.82421875 l 1
 485.8515625 120.825195312 514.575195312 111.748046875 541.501953125 111.748046875 c 0
 565.603515625 111.748046875 582.704101562 118.584960938 589.348632812 122.421875 c 0
 611.254882812 135.069335938 652.12109375 182.815429688 652.12109375 261.997070312 c 0
 652.12109375 392.956054688 545.541015625 499.141601562 429.962890625 499.141601562 c 0xef80
 392.296875 499.141601562 364.904296875 489.19921875 349.178710938 480.120117188 c 0
 332.751953125 470.635742188 301.556640625 446.815429688 269.838867188 391.553710938 c 1
 300.71484375 343.9921875 360.038085938 231.626953125 360.038085938 70.3984375 c 0
 360.038085938 0.73046875 352.904296875 -110.25390625 311.270507812 -165.147460938 c 0
 303.657226562 -175.185546875 293.509765625 -186.619140625 272.688476562 -198.639648438 c 0
 250.54296875 -211.426757812 234.161132812 -214.087890625 221.763671875 -214.087890625 c 0
 134.498046875 -214.087890625 131.328125 -97.6826171875 131.328125 -31.7529296875 c 0
 131.328125 -31.3525390625 131.328125 -30.9560546875 131.328125 -30.564453125 c 0
 131.328125 93.6162109375 155.336914062 218.095703125 206.092773438 332.157226562 c 0
 211.796875 344.974609375 217.920898438 357.442382812 224.5859375 369.513671875 c 1
 212.201171875 388.235351562 199.236328125 404.755859375 186.168945312 418.805664062 c 1
 177.577148438 395.629882812 158.745117188 382.120117188 143.538085938 373.33984375 c 0
 121.504882812 360.619140625 105.661132812 358.166015625 93.65625 358.166015625 c 0
 53.2939453125 358.166015625 30 388.865234375 30 418.765625 c 0
 30 445.041992188 46.5673828125 468.674804688 76.6943359375 486.068359375 c 0
 99.5751953125 499.278320312 115.981445312 501.721679688 129.771484375 501.721679688 c 0
 152.181640625 501.721679688 174.491210938 491.431640625 197.728515625 473.413085938 c 0
 216.465820312 458.884765625 235.544921875 439.068359375 253.743164062 414.690429688 c 1
EndSplineSet
Validated: 524289
EndChar

StartChar: q
Encoding: 113 113 26
Width: 726
Flags: W
HStem: -173.266 28.1758<410.237 476.947> -14.0879 28.4609<223.759 333.417 402.147 520.913> 20.8896 28.1758<333.101 371.326> 137.332 28.1758<321.815 385.272> 499.258 28.1758<278.112 434.405>
VStem: 30 43.9521<152.141 325.984> 268.456 43.9521<60.8074 129.736> 332.097 43.9521<-120.652 -36.003> 385.81 43.9521<51.6309 124.345> 652.181 43.9521<139.82 320.544>
AnchorPoint: "Anchora 1" 363 544 basechar 0
LayerCount: 2
Back
SplineSet
396.102539062 59 m 4
 382.126953125 40 360.732421875 34.9775390625 352.713867188 34.9775390625 c 4
 317.526367188 34.9775390625 290.565429688 59.046875 290.565429688 93.5078125 c 4
 290.565429688 125.41796875 318.41015625 151.419921875 349.647460938 151.419921875 c 4
 380.40625 151.419921875 407.918945312 124.774414062 407.918945312 93.09765625 c 4
 407.918945312 56.8115234375 368.771484375 0 273.126953125 0 c 4
 166.540039062 0 52.109375 101.107421875 52.109375 233.64453125 c 4
 52.109375 381.387695312 180.900390625 513.345703125 359.005859375 513.345703125 c 4
 525.571289062 513.345703125 674.290039062 393.7578125 674.290039062 230.731445312 c 4
 674.290039062 101.846679688 578.83203125 0 460.216796875 0 c 4
 454.047851562 0 448.25390625 0.28515625 442.265625 0.28515625 c 4
 386.989257812 0.28515625 354.206054688 -40.421875 354.206054688 -80.9482421875 c 4
 354.206054688 -123.032226562 390.711914062 -159.177734375 437.557617188 -159.177734375 c 4
 480.706054688 -159.177734375 514.953125 -129.495117188 524.787109375 -91.87109375 c 1028
EndSplineSet
Fore
SplineSet
312.408203125 104.709960938 m 0
 312.408203125 70.3330078125 339.072265625 49.0654296875 369.045898438 49.0654296875 c 0
 370.862304688 49.0654296875 372.485351562 49.271484375 373.661132812 49.484375 c 0
 377.626953125 53.6357421875 384.983398438 64.564453125 384.983398438 79.7978515625 c 0
 385.809570312 80.21875 385.809570312 80.21875 385.809570312 81.8955078125 c 0
 385.809570312 113.696289062 357.217773438 137.33203125 332.014648438 137.33203125 c 0
 328.69921875 137.33203125 325.82421875 136.865234375 324.022460938 136.477539062 c 0
 318.900390625 130.993164062 312.408203125 119.563476562 312.408203125 104.709960938 c 0
73.9521484375 244.846679688 m 0
 73.9521484375 111.977539062 189.697265625 14.087890625 290.493164062 14.087890625 c 0
 302.209960938 14.087890625 323.548828125 15.1142578125 342.544921875 21.5205078125 c 1
 339.405273438 21.0751953125 336.567382812 20.8896484375 334.046875 20.8896484375 c 0
 293.463867188 20.8896484375 268.456054688 47.9658203125 268.456054688 82.3056640625 c 0
 268.456054688 98.63671875 275.54296875 126.30859375 316.474609375 149.94140625 c 0
 338.399414062 162.598632812 354.908203125 165.5078125 367.013671875 165.5078125 c 0
 403.53125 165.5078125 429.76171875 135.606445312 429.76171875 104.299804688 c 0
 429.76171875 52.4404296875 356.952148438 -14.087890625 255.494140625 -14.087890625 c 0
 143.063476562 -14.087890625 30 90.3037109375 30 222.442382812 c 0
 30 276.735351562 46.9091796875 329.185546875 78.712890625 375.543945312 c 0
 132.162109375 453.453125 241.236328125 527.43359375 376.372070312 527.43359375 c 0
 548.09765625 527.43359375 696.1328125 405.252929688 696.1328125 241.93359375 c 0
 696.1328125 161.442382812 658.913085938 74.6767578125 565.629882812 20.8193359375 c 0
 521.997070312 -4.37109375 481.013671875 -14.087890625 442.583984375 -14.087890625 c 0
 436.213867188 -14.087890625 430.407226562 -13.802734375 424.6328125 -13.802734375 c 0
 406.703125 -13.802734375 398.483398438 -18.265625 398.483398438 -18.265625 c 2
 395.454101562 -20.392578125 376.048828125 -38.4169921875 376.048828125 -69.74609375 c 0
 376.048828125 -111.7734375 413.416992188 -145.08984375 454.923828125 -145.08984375 c 0
 470.315429688 -145.08984375 478.657226562 -140.729492188 478.657226562 -140.729492188 c 2
 483.337890625 -138.02734375 497.045898438 -124.125 502.826171875 -102.01171875 c 1
 546.482421875 -81.73046875 l 1
 544.172851562 -90.5654296875 534.778320312 -125.649414062 486.157226562 -153.720703125 c 0
 459.590820312 -169.05859375 438.045898438 -173.265625 419.924804688 -173.265625 c 0
 367.603515625 -173.265625 332.096679688 -134.134765625 332.096679688 -92.150390625 c 0
 332.096679688 -58.783203125 352.358398438 -27.5751953125 390.983398438 -5.275390625 c 0
 418.202148438 10.439453125 439.86328125 14.373046875 459.631835938 14.373046875 c 0
 460.045898438 14.373046875 477.403320312 14.087890625 477.583007812 14.087890625 c 0
 512.951171875 14.087890625 541.28125 24.0830078125 558.129882812 33.8095703125 c 0
 601.475585938 58.8359375 652.180664062 125.852539062 652.180664062 219.529296875 c 0
 652.180664062 382.233398438 502.805664062 499.2578125 341.373046875 499.2578125 c 0
 281.0625 499.2578125 231.1328125 482.96484375 198.416992188 464.077148438 c 0
 170.96875 448.229492188 142.323242188 423.262695312 119.395507812 389.842773438 c 0
 90.9599609375 348.393554688 73.9521484375 297.77734375 73.9521484375 244.846679688 c 0
EndSplineSet
Validated: 524289
EndChar

StartChar: r
Encoding: 114 114 27
Width: 682
Flags: W
HStem: -14.0879 28.1758<331.039 381.158> 335.959 28.1758<73.1613 137.556> 451.83 28.1758<89.6069 146.039> 500.459 28.1758<123.16 209.035 483.514 572.72>
VStem: 30.127 43.9521<376.04 449.751> 146.087 43.9521<370.463 439.305> 243.864 43.9521<52.8312 253.265> 417.012 43.9521<58.6507 285.23>
AnchorPoint: "Anchora 1" 356 580 basechar 0
LayerCount: 2
Fore
SplineSet
30.1279296875 400.434570312 m 0
 30.375 469.850585938 118.293945312 528.634765625 180.540039062 528.634765625 c 0
 239.788085938 528.634765625 318.2421875 488.860351562 368.248046875 437.131835938 c 1
 384.934570312 455.009765625 408.379882812 476.842773438 441.1328125 495.2734375 c 0
 482.034179688 518.3046875 519.18359375 527.44921875 549.85546875 527.44921875 c 0
 588.504882812 527.44921875 624.73828125 513.23046875 652.0390625 488.900390625 c 1
 609.69921875 462.728515625 l 1
 583.311523438 486.244140625 548.052734375 499.2734375 514.85546875 499.2734375 c 0
 455.30078125 499.2734375 415.733398438 463.432617188 383.052734375 420.404296875 c 1
 391.477539062 409.93359375 399.340820312 398.317382812 406.587890625 385.766601562 c 0
 440.512695312 327.005859375 460.963867188 247.704101562 460.963867188 169.44921875 c 0
 460.963867188 46.0986328125 407.541015625 13.83984375 386.974609375 1.966796875 c 0
 363.78515625 -11.421875 346.811523438 -14.087890625 333.922851562 -14.087890625 c 0
 275.666015625 -14.087890625 243.864257812 46.357421875 243.864257812 120.03515625 c 0
 243.864257812 197.819335938 268.749023438 282.708007812 308.141601562 353.3984375 c 0
 316.9921875 369.280273438 326.538085938 384.444335938 336.874023438 398.80078125 c 1
 289.06640625 455.514648438 201.994140625 500.458984375 145.540039062 500.458984375 c 0
 121.211914062 500.458984375 104.076171875 491.698242188 89.2177734375 469.633789062 c 1
 104.944335938 477.37109375 118.076171875 480.005859375 127.020507812 480.005859375 c 0
 165.057617188 480.005859375 190.0390625 449.614257812 190.0390625 417.124023438 c 0
 190.0390625 370.166015625 129.3828125 335.958984375 93.2548828125 335.958984375 c 0
 53.9873046875 335.958984375 31.513671875 363.483398438 30.1904296875 396.89453125 c 1
 30 396.797851562 l 1
 30 397.934570312 30.04296875 399.075195312 30.126953125 400.220703125 c 0
 30.126953125 400.291992188 30.1279296875 400.36328125 30.1279296875 400.434570312 c 0
287.81640625 142.439453125 m 0
 287.81640625 61.658203125 325.491210938 14.087890625 368.922851562 14.087890625 c 0
 373.716796875 14.087890625 377.748046875 14.8720703125 379.7109375 15.3603515625 c 0
 384.451171875 19.6376953125 417.01171875 52.474609375 417.01171875 147.044921875 c 0
 417.01171875 177.642578125 412.646484375 287.393554688 353.7578125 376.16796875 c 1
 336.182617188 345.762695312 287.81640625 252.11328125 287.81640625 142.439453125 c 0
74.0791015625 422.270507812 m 0
 74.208984375 386.118164062 99.4970703125 364.134765625 128.254882812 364.134765625 c 0
 131.17578125 364.134765625 133.723632812 364.505859375 135.4375 364.84375 c 0
 136.958007812 366.544921875 146.086914062 377.4765625 146.086914062 394.719726562 c 0
 146.086914062 428.00390625 118.638671875 451.830078125 92.0205078125 451.830078125 c 0
 90.4697265625 451.830078125 89.115234375 451.678710938 88.09765625 451.51171875 c 0
 82.7958984375 446.087890625 75.208984375 436.060546875 74.0791015625 422.270507812 c 0
EndSplineSet
Validated: 524289
EndChar

StartChar: s
Encoding: 115 115 28
Width: 534
Flags: W
HStem: -14.0879 28.1758<244.431 369.595> 245.425 27.8848<182.645 239.914 239.943 376.551> 373.094 28.1758<378.006 441.312> 500.286 28.1758<212.941 366.943>
VStem: 70.0371 43.9512<320.385 426.592> 333.623 43.9521<412.785 482.638> 449.389 43.9521<407.182 477.407> 460.573 43.9512<83.5527 191.923>
AnchorPoint: "Anchora 1" 290 554 basechar 0
LayerCount: 2
Fore
SplineSet
377.575195312 455.428710938 m 0xfe
 377.575195312 423.081054688 405.788085938 401.26953125 432.418945312 401.26953125 c 0
 434.7265625 401.26953125 436.79296875 401.473632812 438.392578125 401.711914062 c 0
 443.51953125 408.120117188 449.388671875 418.685546875 449.388671875 433.4609375 c 0
 449.388671875 445.9921875 445.112304688 481.521484375 397.583007812 489.365234375 c 1
 397.008789062 488.903320312 l 1
 393.595703125 488.903320312 390.591796875 488.506835938 388.497070312 488.123046875 c 0
 379.794921875 477.235351562 377.575195312 465.033203125 377.575195312 455.428710938 c 0xfe
333.623046875 433.051757812 m 0
 333.623046875 452.651367188 341.850585938 474.161132812 367.73828125 493.348632812 c 1
 337.60546875 496.82421875 297.685546875 500.286132812 275.760742188 500.286132812 c 0
 254.379882812 500.286132812 201.291015625 498.208984375 167.975585938 478.974609375 c 0
 130.99609375 457.624023438 113.98828125 408.02734375 113.98828125 381.91796875 c 0
 113.98828125 363.584960938 118.936523438 344.596679688 129.3125 328.55078125 c 0
 164.850585938 273.484375 241.895507812 273.309570312 274.297851562 273.309570312 c 0
 274.504882812 273.309570312 274.709960938 273.309570312 274.9140625 273.309570312 c 2
 314.176757812 273.600585938 l 2
 423.604492188 273.600585938 470.9296875 239.376953125 490.79296875 204.97265625 c 0
 502.032226562 185.505859375 504.524414062 165.967773438 504.524414062 152.412109375 c 0
 504.524414062 129.293945312 495.9609375 67.759765625 412.119140625 19.353515625 c 0
 370.1796875 -4.859375 330.137695312 -14.087890625 289.60546875 -14.087890625 c 0
 176.533203125 -14.087890625 92.7490234375 52.9501953125 30 137.904296875 c 1
 73.017578125 163.337890625 l 1
 135.524414062 78.7099609375 219.3046875 14.087890625 324.60546875 14.087890625 c 0
 362.271484375 14.087890625 391.049804688 24.509765625 404.619140625 32.34375 c 0
 434.286132812 49.47265625 460.573242188 87.787109375 460.573242188 130.0078125 c 0xfd
 460.573242188 165.26953125 442.6171875 245.424804688 279.366210938 245.424804688 c 0
 279.271484375 245.424804688 239.9140625 245.133789062 239.9140625 245.133789062 c 2
 206.833007812 245.133789062 119.607421875 245.133789062 83.646484375 307.418945312 c 0
 74.59375 323.100585938 70.037109375 341.2578125 70.037109375 359.513671875 c 0
 70.037109375 371.340820312 73.7841796875 441.913085938 160.475585938 491.96484375 c 0
 213.77734375 522.739257812 268.354492188 528.461914062 310.760742188 528.461914062 c 0
 345.727539062 528.461914062 415.634765625 521.034179688 439.170898438 516.706054688 c 0
 476.29296875 509.87890625 493.340820312 484.03515625 493.340820312 455.868164062 c 0
 493.340820312 430.163085938 477.23046875 405.828125 446.296875 387.96875 c 0
 424.897460938 375.614257812 409.268554688 373.09375 397.418945312 373.09375 c 0
 360.017578125 373.09375 333.623046875 400.6484375 333.623046875 433.051757812 c 0
EndSplineSet
Validated: 524289
EndChar

StartChar: uni0283
Encoding: 643 643 29
Width: 612
Flags: W
HStem: -214.088 28.1758<126.777 194.826> 541.663 28.1758<435.929 477.785> 657.912 28.1758<426.293 489.317> 785.912 28.1758<357.131 460.704>
VStem: 30 43.9512<-143.105 -39.398> 239.445 43.9512<-139.461 715.923> 373.601 43.9512<581.247 651.391> 489.909 43.8867<626.065 645.584> 538.629 43.9512<626.49 727.531>
AnchorPoint: "Anchora 1" 360 310 basechar 0
LayerCount: 2
Back
SplineSet
456.184570312 519.076171875 m 4
 488.184570312 519.076171875 511.46484375 551.26171875 511.46484375 575.327148438 c 4
 511.46484375 607 487.1640625 635.44140625 451.5 635.44140625 c 4
 420.184570312 635.44140625 395.15625 608 395.15625 578.466796875 c 4
 395.15625 546.84375 418.184570312 519.192382812 453.184570312 519.192382812 c 4
 516.184570312 519.192382812 569.043945312 570.2109375 569.043945312 644.905273438 c 4
 569.043945312 728.022460938 495.501953125 799.872070312 408.255859375 800 c 6
 407.99609375 800 l 6
 342.783203125 800 281.162109375 759.581054688 265.591796875 679.456054688 c 4
 261.254882812 657.1796875 261.000976562 634.337890625 261.000976562 611.64453125 c 6
 261.000976562 73.48828125 l 6
 261.000976562 47.87109375 261.184570312 -43.6923828125 261.184570312 -62.0009765625 c 4
 261.184570312 -170.5859375 192.0703125 -200 155.4296875 -200 c 4
 98.7060546875 -200 51.5556640625 -147.526367188 51.5556640625 -92.81640625 c 4
 51.5556640625 -70.9140625 58.87890625 -49.0625 72.259765625 -30.9775390625 c 1028
EndSplineSet
Fore
SplineSet
426.17578125 814.087890625 m 2
 523.029296875 814.087890625 582.580078125 751.658203125 582.580078125 688.202148438 c 0
 582.580078125 616.322265625 543.544921875 581.432617188 511.318359375 562.826171875 c 0
 495.078125 553.450195312 468.641601562 541.546875 439.104492188 541.546875 c 0
 438.1015625 541.543945312 437.1015625 541.663085938 436.104492188 541.663085938 c 0
 397.356445312 541.663085938 373.600585938 570.625 373.600585938 603.823242188 c 0
 373.600585938 652.244140625 434.579101562 686.087890625 469.419921875 686.087890625 c 0
 507.887695312 686.087890625 532.401367188 657.796875 533.795898438 626.065429688 c 1
 536.935546875 638.150390625 538.62890625 651.537109375 538.62890625 665.797851562 c 0
 538.62890625 728.282226562 478.23828125 785.912109375 391.17578125 785.912109375 c 2
 390.916015625 785.912109375 l 2
 365.092773438 785.912109375 345.857421875 778.583007812 338.918945312 774.577148438 c 0
 321.635742188 764.598632812 296.822265625 735.768554688 287.911132812 689.91015625 c 0
 284.559570312 672.696289062 283.396484375 655.8515625 283.396484375 622.846679688 c 2
 283.396484375 84.6943359375 l 1
 283.580078125 -50.798828125 l 2
 283.580078125 -100.624023438 267.747070312 -158.502929688 205.801757812 -194.267578125 c 0
 178.415039062 -210.079101562 156.65625 -214.087890625 138.349609375 -214.087890625 c 0
 77.599609375 -214.087890625 30 -160.153320312 30 -104.018554688 c 0
 30 -81.4140625 37.130859375 -58.6611328125 52.720703125 -37.591796875 c 1
 92.6396484375 -24.36328125 l 1
 81.453125 -39.4814453125 73.951171875 -60.435546875 73.951171875 -81.6142578125 c 0
 73.951171875 -138.592773438 124.213867188 -185.912109375 173.349609375 -185.912109375 c 0
 188.861328125 -185.912109375 198.265625 -181.297851562 198.301757812 -181.27734375 c 0
 208.342773438 -175.479492188 239.62890625 -140.856445312 239.62890625 -73.203125 c 2
 239.4453125 62.2822265625 l 1
 239.4453125 600.442382812 l 2
 239.4453125 653.553710938 239.4453125 734.465820312 331.418945312 787.567382812 c 0
 366.881835938 808.041992188 397.372070312 814.087890625 425.916015625 814.087890625 c 2
 426.17578125 814.087890625 l 2
489.909179688 600.68359375 m 0
 489.909179688 634.58203125 462.58984375 657.912109375 434.419921875 657.912109375 c 0
 432.095703125 657.912109375 430.15625 657.692382812 428.728515625 657.452148438 c 0
 424.670898438 652.658203125 417.551757812 642.000976562 417.551757812 626.227539062 c 0
 417.551757812 592.26953125 443.624023438 569.838867188 471.104492188 569.838867188 c 0
 473.466796875 569.838867188 475.73046875 569.922851562 477.885742188 570.0703125 c 0
 482.668945312 575.458984375 489.909179688 587.76171875 489.909179688 600.68359375 c 0
EndSplineSet
Validated: 524289
EndChar

StartChar: t
Encoding: 116 116 30
Width: 656
Flags: W
HStem: -14.0879 28.1758<398.442 530.608> 356.396 28.1758<101.272 155.434> 498.785 28.252<90.7577 145.944 200.667 357.231 369.974 586.881 586.926 617.253>
VStem: 30 43.9521<404.132 484.575> 177.374 43.9521<170.359 347.054 404.901 475.282>
AnchorPoint: "Anchora 1" 364 580 basechar 0
LayerCount: 2
Back
SplineSet
128.438476562 512.887695312 m 0
 164.284179688 512.887695312 195.014648438 479.787109375 195.014648438 438.745117188 c 0
 195.014648438 403.998046875 163.56640625 370.484375 123.4140625 370.484375 c 0
 85.08984375 370.484375 52.3671875 401.778320312 52.3671875 442.860351562 c 0
 52.3671875 483.141601562 83.8134765625 513.40234375 130.387695312 513.40234375 c 0
 147.40625 513.40234375 164.424804688 512.711914062 181.440429688 512.711914062 c 2
 604.805664062 513.063476562 l 1025
542.54296875 12.4765625 m 0
 516.681640625 4.1435546875 489.53515625 0 462.38671875 0 c 0
 321.354492188 0 199.741210938 114.388671875 199.741210938 260.66796875 c 0
 199.741210938 395.208984375 311.767578125 513.077148438 477.21484375 513.077148438 c 0
 478.23828125 513.077148438 479.26171875 513.072265625 480.284179688 513.063476562 c 1024
  Spiro
    542.547 12.4766 {
    483.3 0.821948 o
    422.772 2.9573 o
    364.5 18.757 o
    311.453 47.7153 o
    266.146 88.1251 o
    231.242 137.626 o
    212.927 179.913 o
    202.303 224.912 o
    199.961 270.934 o
    206.222 316.616 o
    220.963 360.42 o
    243.702 400.429 o
    284.042 444.442 o
    333.737 478.087 o
    389.31 500.55 o
    419.149 507.669 o
    449.629 511.862 o
    480.281 513.063 o
    0 0 z
  EndSpiro
-395.38671875 416.135742188 m 3
 -368.38671875 416.135742188 -342.359375 440 -341.38671875 475 c 0
 -340.590820312 503.647460938 -366.38671875 531.67578125 -399.462890625 531.67578125 c 0
 -430.732421875 531.67578125 -457.404296875 506 -457.104492188 472.391601562 c 0
 -456.815429688 440 -431.38671875 415.717773438 -393.8046875 415.717773438 c 0
 -379.997070312 415.717773438 -366.188476562 416.278320312 -352.3828125 416.278320312 c 2
 -8.8818359375 416.278320312 l 1025
-59.3994140625 10.123046875 m 0
 -80.3818359375 3.3623046875 -102.407226562 0 -124.434570312 0 c 0
 -238.862304688 0 -337.534179688 92.810546875 -337.534179688 211.495117188 c 0
 -337.534179688 320.65625 -246.640625 416.290039062 -112.403320312 416.290039062 c 0
 -111.573242188 416.290039062 -110.743164062 416.286132812 -109.913085938 416.278320312 c 1024
  Spiro
    -59.3964 10.123 {
    -107.466 0.666895 o
    -156.576 2.39943 o
    -203.856 15.2187 o
    -246.896 38.7142 o
    -283.656 71.5011 o
    -311.976 111.664 o
    -326.836 145.974 o
    -335.456 182.484 o
    -337.356 219.825 o
    -332.276 256.889 o
    -320.316 292.43 o
    -301.866 324.892 o
    -269.136 360.602 o
    -228.816 387.9 o
    -183.726 406.126 o
    -159.516 411.902 o
    -134.786 415.304 o
    -109.916 416.278 o
    0 0 z
  EndSpiro
EndSplineSet
Fore
SplineSet
30 431.658203125 m 0
 30 490.34375 97.5 527.490234375 147.497070312 527.490234375 c 0
 164.694335938 527.490234375 181.7109375 526.799804688 198.5390625 526.799804688 c 2
 484.504882812 527.037109375 l 2
 487.771484375 527.123046875 491.043945312 527.165039062 494.32421875 527.165039062 c 0
 497.193359375 527.165039062 498.10546875 527.165039062 498.86328125 527.048828125 c 2
 621.915039062 527.151367188 l 2
 622.701171875 527.151367188 626.390625 527.147460938 626.390625 524.265625 c 0
 626.390625 516.172851562 599.62890625 498.986328125 586.92578125 498.975585938 c 2
 586.92578125 498.975585938 525.987304688 498.924804688 450.349609375 498.862304688 c 0
 273.87109375 493.853515625 221.326171875 356.442382812 221.326171875 271.870117188 c 0
 221.326171875 125.440429688 343.99609375 14.087890625 479.49609375 14.087890625 c 0
 519.474609375 14.087890625 558.840820312 26.564453125 559.65234375 26.564453125 c 0
 560.438476562 26.564453125 564.127929688 26.560546875 564.127929688 23.6787109375 c 0
 564.127929688 9.279296875 512.49609375 -14.087890625 444.49609375 -14.087890625 c 0
 297.881835938 -14.087890625 177.374023438 103.39453125 177.374023438 249.465820312 c 0
 177.374023438 360.6875 250.758789062 451.900390625 357.231445312 498.78515625 c 1
 296.203125 498.734375 237.185546875 498.685546875 200.666992188 498.655273438 c 1
 207.700195312 489.188476562 216.599609375 472.71484375 216.599609375 449.947265625 c 0
 216.599609375 397.516601562 150.498046875 356.396484375 105.5234375 356.396484375 c 0
 61.4765625 356.396484375 30 390.98046875 30 431.658203125 c 0
172.647460938 427.54296875 m 0
 172.647460938 469.243164062 140.662109375 499 110.727539062 499 c 0
 110.060546875 499 109.39453125 499.026367188 108.727539062 499.026367188 c 0
 107.264648438 498.987304688 92.4384765625 498.282226562 90.0302734375 495.95703125 c 0
 86.744140625 492.784179688 73.9521484375 479.544921875 73.9521484375 454.0625 c 0
 73.9521484375 412.782226562 107.751953125 384.572265625 140.5234375 384.572265625 c 0
 147.740234375 384.572265625 153.3515625 386.155273438 155.102539062 386.723632812 c 0
 161.182617188 392.24609375 172.647460938 406.74609375 172.647460938 427.54296875 c 0
EndSplineSet
Validated: 524289
EndChar

StartChar: u
Encoding: 117 117 32
Width: 609
Flags: W
HStem: -14.0879 28.1758<229.68 387.857> 383.912 28.1758<95.4331 140.618> 499.67 28.1758<84.7523 150.154>
VStem: 30.1289 43.9521<131.174 255.528 255.585 343.316 343.335 387.246 425.371 465.281 465.284 490.203> 149.188 43.9521<418.407 487.657> 535.585 43.9551<127.201 521.645>
AnchorPoint: "Anchora 1" 315 555 basechar 0
LayerCount: 2
Back
SplineSet
53.9970703125 459 m 0
 53.9814453125 458.497070312 53.96484375 454.12890625 53.96484375 454.079101562 c 0
 53.96484375 425.69921875 79.0302734375 398 112.655273438 398 c 0
 139.655273438 398 170.704101562 419.451171875 170.704101562 455.228515625 c 0
 170.704101562 485.967773438 146.655273438 513.7578125 111.104492188 513.7578125 c 0
 79.6552734375 513.7578125 53.9638671875 491 52.6552734375 445 c 2
 52.6552734375 445 51.7998046875 418 51.7998046875 379.818359375 c 0
 51.7998046875 371.37890625 51.744140625 362.938476562 51.744140625 354.498046875 c 0
 51.6787109375 343.946289062 51.6455078125 333.396484375 51.6455078125 322.846679688 c 0
 51.6455078125 310.97265625 51.9931640625 245.112304688 51.9931640625 244.326171875 c 0
 51.9931640625 226.970703125 51.5166015625 200.625 51.5166015625 200.184570312 c 0
 51.5166015625 95.517578125 145.336914062 0.0400390625 304.41015625 0 c 0
 455.495117188 0 557.104492188 88.9345703125 557.104492188 199.844726562 c 0
 557.104492188 200.252929688 556.708984375 225.36328125 556.708984375 240.552734375 c 0
 556.708984375 257.43359375 556.8984375 274.317382812 556.8984375 291.197265625 c 2
 556.8984375 513.424804688 l 1025
EndSplineSet
Fore
SplineSet
76.400390625 465.28125 m 2
 76.400390625 436.828125 102.454101562 412.087890625 130.614257812 412.087890625 c 0
 134.135742188 412.087890625 136.688476562 412.493164062 138.283203125 412.862304688 c 0
 142.440429688 417.54296875 149.1875 427.663085938 149.1875 444.026367188 c 0
 149.1875 474.983398438 124.114257812 499.669921875 94.064453125 499.669921875 c 0
 91.6669921875 499.669921875 89.4423828125 499.44140625 87.6865234375 499.180664062 c 0
 82.021484375 491.51953125 78.3017578125 481.974609375 76.421875 470.462890625 c 0
 76.421875 470.359375 76.431640625 470.25390625 76.431640625 470.098632812 c 2
 76.431640625 469.861328125 l 2
 76.41796875 468.784179688 76.400390625 465.28125 76.400390625 465.28125 c 2
129.063476562 527.845703125 m 0
 170.329101562 527.845703125 193.139648438 496.69140625 193.139648438 466.430664062 c 0
 193.139648438 445.889648438 183.19921875 421.01171875 146.159179688 399.625976562 c 0
 123.61328125 386.609375 107.2109375 383.912109375 95.615234375 383.912109375 c 0
 87.833984375 383.912109375 80.6904296875 385.109375 74.2275390625 387.24609375 c 1
 74.2265625 386.713867188 74.0810546875 338.829101562 74.0810546875 334.063476562 c 0
 74.0810546875 334.048828125 74.4287109375 255.528320312 74.4287109375 255.528320312 c 2
 74.4287109375 242.384765625 74.232421875 229.579101562 73.9521484375 211.38671875 c 0
 73.9521484375 107.301757812 168.030273438 14.126953125 322.369140625 14.087890625 c 0
 350.043945312 14.087890625 408.09765625 17.619140625 454.01953125 44.1318359375 c 0
 471.352539062 54.1396484375 489.533203125 69.2021484375 504.962890625 91.1328125 c 0
 516.208007812 107.116210938 535.584960938 141.37890625 535.584960938 187.75390625 c 0
 535.584960938 190.640625 535.192382812 213.616210938 535.192382812 229.350585938 c 0
 535.192382812 246.245117188 535.381835938 263.12890625 535.381835938 279.995117188 c 2
 535.381835938 502.22265625 l 2
 535.381835938 510.318359375 562.162109375 527.512695312 574.857421875 527.512695312 c 0
 575.64453125 527.512695312 579.333984375 527.508789062 579.333984375 524.626953125 c 2
 579.333984375 302.399414062 l 2
 579.333984375 285.505859375 579.14453125 268.622070312 579.14453125 251.754882812 c 0
 579.14453125 236.643554688 579.540039062 211.454101562 579.540039062 211.046875 c 0
 579.540039062 168.322265625 563.7265625 90.1513671875 461.51953125 31.1416015625 c 0
 417.21484375 5.5625 359.642578125 -14.087890625 287.370117188 -14.087890625 c 0
 123.532226562 -14.046875 30 83.7646484375 30 188.982421875 c 0
 30 189.485351562 30.4765625 215.79296875 30.4765625 233.124023438 c 2
 30.12890625 311.629882812 l 2
 30.12890625 322.186523438 30.162109375 332.7578125 30.2275390625 343.31640625 c 2
 30.2275390625 343.31640625 30.283203125 368.616210938 30.283203125 368.624023438 c 0
 30.283203125 406.854492188 31.1396484375 433.87890625 31.140625 433.905273438 c 0
 32.0087890625 464.397460938 42.701171875 491.712890625 79.59375 513.012695312 c 0
 102.6953125 526.350585938 117.5546875 527.845703125 129.063476562 527.845703125 c 0
EndSplineSet
Validated: 524289
EndChar

StartChar: v
Encoding: 118 118 33
Width: 656
Flags: W
HStem: -14.0879 21G<342.325 348.974> 383.254 28.1758<76.2017 137.914> 499.228 28.1758<83.6004 140.71>
VStem: 30 43.9521<423.219 491.682>
AnchorPoint: "Anchora 1" 356 580 basechar 0
LayerCount: 2
Back
SplineSet
160.501953125 485 m 4
 168.501953125 471 168.501953125 463.413085938 168.501953125 455 c 4
 168.501953125 423.56640625 143.083007812 397.341796875 109.9375 397.341796875 c 4
 83.501953125 397.341796875 52.21484375 419 52.21484375 455.211914062 c 4
 52.21484375 480.374023438 74.5693359375 513.315429688 109.530273438 513.315429688 c 4
 133.501953125 513.315429688 152.41015625 498.040039062 160.727539062 485 c 4
 164.181640625 479.584960938 168.865234375 470.954101562 173.374023438 463.985351562 c 4
 281.50390625 296.8671875 341.650390625 155.168945312 360.53125 0 c 5
 375.061523438 115.999023438 432.408203125 332.196289062 604.501953125 513.583007812 c 1028
EndSplineSet
Fore
SplineSet
30 444.009765625 m 0
 30 488.450195312 86.98828125 527.403320312 126.791015625 527.403320312 c 0
 154.62890625 527.403320312 173.51171875 511.029296875 182.086914062 497.586914062 c 0
 185.790039062 491.780273438 190.073242188 483.7734375 194.724609375 476.584960938 c 0
 278.823242188 346.607421875 334.329101562 231.391601562 363.66015625 112.76953125 c 1
 395.223632812 225.91796875 458.78125 374.927734375 586.384765625 509.420898438 c 0
 594.995117188 518.497070312 612.81640625 527.670898438 621.762695312 527.670898438 c 0
 622.548828125 527.670898438 626.239257812 527.666992188 626.239257812 524.78515625 c 0
 626.239257812 522.971679688 624.743164062 520.487304688 622.141601562 517.745117188 c 0
 529.985351562 420.612304688 469.80078125 310.040039062 432.985351562 211.717773438 c 0
 403.514648438 133.009765625 388.658203125 61.9931640625 382.23828125 10.7470703125 c 0
 381.185546875 2.33984375 355.155273438 -14.087890625 342.79296875 -14.087890625 c 0
 341.856445312 -14.087890625 338.63671875 -14.025390625 338.337890625 -11.5693359375 c 0
 320.940429688 131.411132812 268.340820312 264.415039062 171.19140625 420.448242188 c 1
 159.680664062 407.890625 127.551757812 383.25390625 92.19921875 383.25390625 c 0
 60.2041015625 383.25390625 30 407.8671875 30 444.009765625 c 0
146.287109375 444.71875 m 0
 146.287109375 484.017578125 109.567382812 499.227539062 91.7919921875 499.227539062 c 0
 89.7314453125 499.227539062 87.8994140625 499.05078125 86.470703125 498.842773438 c 0
 82.1748046875 493.759765625 73.9521484375 481.99609375 73.9521484375 466.4140625 c 0
 73.9521484375 430.34375 106.1328125 411.4296875 127.198242188 411.4296875 c 0
 130.459960938 411.4296875 133.328125 411.833007812 135.28515625 412.209960938 c 0
 140.301757812 418.200195312 146.287109375 428.543945312 146.287109375 443.797851562 c 0
 146.287109375 444.107421875 146.287109375 444.4140625 146.287109375 444.71875 c 0
EndSplineSet
Validated: 524289
EndChar

StartChar: w
Encoding: 119 119 34
Width: 734
Flags: W
HStem: -14.0918 28.1758<213.561 298.98 470.733 552.928> 382.912 28.1758<101.153 152.169> 490.494 28.1758<375.636 411.049> 498.903 28.2949<97.163 161.102>
VStem: 30 43.9512<184.65 390.8> 160.622 43.9365<416.905 479.361> 307.322 43.9512<169.6 451.526> 439.664 43.9512<206.704 465.239> 660.661 43.9512<149.829 442.262>
AnchorPoint: "Anchora 1" 386 580 basechar 0
LayerCount: 2
Back
SplineSet
73.8203125 483.810546875 m 0
 68.7607421875 475.094726562 66.0712890625 465.088867188 66.0712890625 455.06640625 c 0
 66.0712890625 423.668945312 92.0654296875 397 124.215820312 397 c 0
 155.50390625 397 182.215820312 422 182.1953125 453.4609375 c 0
 182.171875 489 155.516601562 512.979492188 123.215820312 512.991210938 c 0
 99.2158203125 513 77.2158203125 498 67.2158203125 469 c 0
 63.451171875 458.083007812 59.9638671875 433.872070312 57.4560546875 416.33203125 c 0
 53.45703125 388.362304688 51.587890625 360.111328125 51.587890625 331.84765625 c 0
 51.587890625 111.44140625 152.015625 -0.00390625 251.395507812 -0.00390625 c 0
 381.6484375 -0.00390625 461.251953125 182.391601562 461.251953125 340.877929688 c 0
 461.251953125 442.991210938 443.586914062 504.58203125 400.965820312 504.58203125 c 0
 369.603515625 504.58203125 351.727539062 475.970703125 342.390625 433.912109375 c 0
 333.3359375 393.130859375 328.91015625 351.336914062 328.91015625 309.556640625 c 0
 328.91015625 150.223632812 393.563476562 -0.5751953125 508.59765625 -0.5751953125 c 0
 582.166992188 -0.5751953125 682.249023438 79.6455078125 682.249023438 280.194335938 c 2
 682.249023438 280.5234375 l 2
 682.249023438 359.58984375 668.862304688 438.640625 642.958984375 513.297851562 c 1024
EndSplineSet
Fore
SplineSet
88.4345703125 466.268554688 m 0xdf80
 88.4345703125 434.703125 115.489257812 411.087890625 142.103515625 411.087890625 c 0
 145.735351562 411.087890625 148.19921875 411.38671875 149.778320312 411.696289062 c 0
 157.380859375 420.530273438 160.622070312 431.69921875 160.622070312 442.799804688 c 0
 160.622070312 453.2421875 157.752929688 463.625 152.948242188 471.948242188 c 0
 143.006835938 489.166015625 124.296875 498.903320312 106.086914062 498.903320312 c 0
 103.818359375 498.903320312 101.770507812 498.680664062 100.192382812 498.432617188 c 0
 93.4814453125 490.051757812 88.4345703125 480.206054688 88.4345703125 466.268554688 c 0xdf80
392.353515625 117.756835938 m 1
 406.122070312 145.66796875 439.6640625 224.48046875 439.6640625 329.67578125 c 0
 439.6640625 393.31640625 432.680664062 440.928710938 417.487304688 467.24609375 c 0
 408.30078125 483.15625 396.032226562 490.494140625 383.853515625 490.494140625 c 0xef80
 383.548828125 490.494140625 383.25 490.481445312 382.958984375 490.481445312 c 0
 358.872070312 457.252929688 351.2734375 367.0546875 351.2734375 320.758789062 c 0
 351.2734375 246.311523438 365.500976562 173.684570312 392.353515625 117.756835938 c 1
362.309570312 68.220703125 m 1
 344.239257812 97.9990234375 307.322265625 174.061523438 307.322265625 298.354492188 c 0
 307.322265625 340.368164062 311.768554688 382.434570312 320.904296875 423.58203125 c 0
 330.323242188 466.0078125 346.219726562 488.473632812 375.32421875 505.27734375 c 0
 395.706054688 517.043945312 409.254882812 518.669921875 418.853515625 518.669921875 c 0xef80
 449.173828125 518.669921875 483.615234375 495.1875 483.615234375 352.080078125 c 0
 483.615234375 319.109375 478.829101562 190.400390625 408.004882812 89.3818359375 c 1
 437.87890625 42.3193359375 478.943359375 13.5126953125 526.485351562 13.5126953125 c 0
 561.514648438 13.5126953125 581.094726562 32.2666015625 593.795898438 46.3349609375 c 0
 619.073242188 74.33203125 660.661132812 139.9921875 660.661132812 268.9921875 c 2
 660.661132812 269.321289062 l 2
 660.661132812 402.373046875 621.37109375 499.735351562 621.37109375 502.095703125 c 0
 621.37109375 510.19140625 648.151367188 527.385742188 660.846679688 527.385742188 c 0
 662.014648438 527.385742188 664.541992188 527.235351562 665.1796875 525.3984375 c 0
 691.169921875 450.489257812 704.612304688 371.161132812 704.612304688 291.725585938 c 2
 704.612304688 291.396484375 l 2
 704.612304688 190.002929688 679.1875 71.044921875 574.604492188 10.6640625 c 0
 540.876953125 -8.80859375 512.775390625 -14.6630859375 491.485351562 -14.6630859375 c 0
 442.2109375 -14.6630859375 403.794921875 10.306640625 374.680664062 49.7216796875 c 1
 348.557617188 24.1357421875 295.4765625 -14.091796875 234.283203125 -14.091796875 c 0
 127.516601562 -14.091796875 30 103.614257812 30 320.645507812 c 0
 30 349.0546875 31.8779296875 377.475585938 35.9072265625 405.657226562 c 0
 42.994140625 455.228515625 45.9453125 468.905273438 62.1923828125 487.841796875 c 0
 68.37109375 495.041992188 77.978515625 503.885742188 92.357421875 512.1875 c 0
 110.552734375 522.692382812 127.426757812 527.198242188 142.271484375 527.198242188 c 0xdf80
 179.931640625 527.198242188 204.537109375 498.204101562 204.55859375 464.624023438 c 0
 204.55859375 447.239257812 196.770507812 420.940429688 157.708007812 398.387695312 c 0
 135.580078125 385.611328125 119.2890625 382.912109375 107.103515625 382.912109375 c 0
 95.2021484375 382.912109375 84.67578125 385.83203125 75.7919921875 390.799804688 c 1
 74.5498046875 374.9296875 73.951171875 358.995117188 73.951171875 343.049804688 c 0
 73.951171875 119.521484375 177.150390625 14.083984375 269.283203125 14.083984375 c 0
 300.465820312 14.083984375 328.375 22.9130859375 362.309570312 68.220703125 c 1
EndSplineSet
Validated: 524289
EndChar

StartChar: x
Encoding: 120 120 35
Width: 659
Flags: W
HStem: -14.0879 28.1758<92.9062 159.094 507.982 597.143> 382.518 28.1758<74.2741 138.115> 499.305 28.1758<83.0151 174.754 479.314 545.264>
VStem: 30 43.9521<422.365 492.637> 53.5605 43.9521<22.4687 96.7225> 275.8 44.0459<262.084 337.434> 335.724 44.0117<152.276 251.528 262.092 281.306 288.349 373.723> 538.452 43.9521<411.449 493.012>
AnchorPoint: "Anchora 1" 328 580 basechar 0
LayerCount: 2
Back
SplineSet
126.00390625 512 m 0
 147.00390625 507.512695312 168.07421875 485.185546875 168.07421875 454.98828125 c 0
 168.07421875 423.461914062 144.125 396.60546875 110.7578125 396.60546875 c 0
 79.3212890625 396.60546875 51.9833984375 420.7109375 51.9833984375 454.8125 c 0
 51.9833984375 485.8828125 77.00390625 513.392578125 111.330078125 513.392578125 c 0
 198.67578125 513.392578125 297.948242188 368.904296875 297.948242188 245.057617188 c 0
 297.948242188 120.275390625 190.2109375 23.6025390625 160.963867188 8.5908203125 c 0
 150.716796875 3.3154296875 139.19140625 0 127.7578125 0 c 0
 98.7373046875 0 75.5439453125 22.42578125 75.5439453125 52.2353515625 c 0
 75.5439453125 77.2041015625 90.58984375 98.322265625 101.6328125 112.114257812 c 0
 227.139648438 268.694335938 486.446289062 260.125976562 553.0078125 430.897460938 c 0
 556.44921875 439.727539062 560.435546875 452.012695312 560.435546875 464.716796875 c 0
 560.435546875 494.208984375 539.489257812 513.564453125 510.594726562 513.564453125 c 0
 459.162109375 513.564453125 357.639648438 424.055664062 357.639648438 270.708984375 c 0
 357.639648438 93.2705078125 457.4375 0 549.250976562 0 c 0
 569.129882812 0 589.005859375 4.3740234375 607.0390625 12.791015625 c 1024
EndSplineSet
Fore
SplineSet
97.5126953125 63.4375 m 0xef
 97.5126953125 33.5224609375 121.666992188 14.087890625 145.25 14.087890625 c 0
 152.958007812 14.087890625 158.353515625 16.0087890625 160.102539062 16.7314453125 c 0
 184.806640625 33.4228515625 271.392578125 115.8671875 275.791992188 225.256835938 c 1
 202.931640625 192.137695312 157.919921875 164.034179688 121.07421875 118.06640625 c 0
 111.190429688 105.72265625 97.5126953125 87.115234375 97.5126953125 63.4375 c 0xef
538.452148438 453.514648438 m 0
 538.452148438 482.969726562 516.759765625 499.4765625 493.087890625 499.4765625 c 0
 487.1875 499.4765625 476.946289062 499.4765625 455.966796875 479.823242188 c 0
 439.139648438 464.060546875 381.834960938 402.1484375 379.668945312 288.348632812 c 1
 443.27734375 317.393554688 503.21484375 349.140625 531.403320312 421.459960938 c 0
 534.693359375 429.90625 538.452148438 441.495117188 538.452148438 453.514648438 c 0
128.822265625 527.48046875 m 0
 220.685546875 527.48046875 316.895507812 383.408203125 319.845703125 262.083984375 c 1
 320.004882812 262.15234375 334.4921875 268.41015625 335.783203125 268.96875 c 0
 338.575195312 372.346679688 388.979492188 462.157226562 467.177734375 507.3046875 c 0
 491.650390625 521.43359375 514.028320312 527.65234375 528.086914062 527.65234375 c 0
 562.440429688 527.65234375 582.404296875 505.180664062 582.404296875 475.918945312 c 0
 582.404296875 451.541992188 565.877929688 409.48828125 531.555664062 371.893554688 c 0
 497.108398438 334.162109375 447.231445312 302.211914062 379.735351562 271.044921875 c 1
 383.793945312 98.83203125 483.46875 14.087890625 566.743164062 14.087890625 c 0
 599.5234375 14.087890625 613.944335938 26.87890625 624.53125 26.87890625 c 0
 625.317382812 26.87890625 629.0078125 26.875 629.0078125 23.9931640625 c 0
 629.0078125 13.30078125 584.262695312 -14.087890625 531.744140625 -14.087890625 c 0
 434.56640625 -14.087890625 338.611328125 81.2666015625 335.723632812 251.528320312 c 1
 335.5625 251.458984375 321.287109375 245.293945312 319.608398438 244.568359375 c 0
 316.24609375 180.765625 285.895507812 124.235351562 252.293945312 81.6669921875 c 0
 232.290039062 56.32421875 171.221679688 -14.087890625 110.250976562 -14.087890625 c 0
 75.5615234375 -14.087890625 53.560546875 11.6044921875 53.560546875 41.033203125 c 0xef
 53.560546875 67.29296875 69.974609375 90.9228515625 82.1767578125 106.162109375 c 0
 139.37890625 177.52734375 228.483398438 220.862304688 275.799804688 242.586914062 c 1
 273.948242188 292.109375 256.610351562 344.669921875 230.89453125 389.211914062 c 0
 218.168945312 411.252929688 203.39453125 431.328125 187.504882812 448.120117188 c 1
 183.01953125 432.591796875 171.2734375 413.86328125 143.176757812 397.640625 c 0
 121.172851562 384.9375 105.380859375 382.517578125 93.2509765625 382.517578125 c 0
 56.2412109375 382.517578125 30 409.737304688 30 443.610351562 c 0xf7
 30 460.397460938 37.0498046875 488.584960938 77.5703125 511.979492188 c 0
 99.857421875 524.84765625 116.1796875 527.48046875 128.822265625 527.48046875 c 0
73.9521484375 466.014648438 m 0xf7
 73.9521484375 431.908203125 102.194335938 410.693359375 128.25 410.693359375 c 0
 130.959960938 410.693359375 133.3828125 410.9609375 135.18359375 411.256835938 c 0
 140.485351562 417.852539062 146.090820312 428.451171875 146.090820312 443.786132812 c 0
 146.090820312 473.560546875 124.786132812 494.20703125 106.62890625 498.086914062 c 0
 103.490234375 498.7578125 98.4072265625 499.3046875 93.8232421875 499.3046875 c 0
 90.314453125 499.3046875 87.265625 498.852539062 85.2705078125 498.452148438 c 0
 82.904296875 495.751953125 73.9521484375 484.32421875 73.9521484375 466.014648438 c 0xf7
EndSplineSet
Validated: 524289
EndChar

StartChar: y
Encoding: 121 121 36
Width: 616
Flags: W
HStem: -214.088 28.1758<429.038 490.303> -14.0879 28.1758<228.882 348.532> 382.946 28.1758<95.721 141.297> 498.624 28.1758<85.5155 130.764 470.652 511.715>
VStem: 30.4697 43.9521<159.866 340.408 340.427 386.49 424.837 489.128> 149.588 43.9521<417.695 487> 348.585 43.9521<-160.013 -80.4508> 415.766 43.9521<190.791 485.201> 515.62 43.9521<-163.392 -48.4263> 543.002 43.9521<230.44 472.13>
AnchorPoint: "Anchora 1" 309 580 basechar 0
LayerCount: 2
Back
SplineSet
55.5654296875 462 m 4
 55.546875 461.3984375 55.537109375 454.852539062 55.537109375 454.251953125 c 4
 55.537109375 418.203125 85.7607421875 397.034179688 113.37890625 397.034179688 c 4
 156.059570312 397.034179688 171.517578125 435.172851562 171.517578125 453.943359375 c 4
 171.517578125 490 142.478515625 512.9765625 111.817382812 512.9765625 c 4
 98.478515625 512.9765625 62.6455078125 504 55.70703125 462.849609375 c 4
 53.521484375 449.884765625 52.1865234375 422.17578125 52.1865234375 406.301757812 c 4
 52.1865234375 397.375 52.349609375 390.450195312 52.349609375 377.197265625 c 4
 52.349609375 368.668945312 52.2939453125 360.138671875 52.2939453125 351.610351562 c 4
 52.2939453125 337.392578125 52.3994140625 330.75390625 52.3994140625 316.5390625 c 4
 52.3994140625 304.254882812 51.9296875 264.189453125 51.9296875 263.66015625 c 4
 51.9296875 72.7685546875 187.754882812 0 286.65625 0 c 4
 424.137695312 0 564.931640625 134.765625 564.931640625 361.587890625 c 4
 564.931640625 398.221679688 564.931640625 512.711914062 497.438476562 512.711914062 c 4
 465.966796875 512.711914062 453.2734375 486.083984375 448.37890625 475.818359375 c 4
 444.3359375 467.334960938 437.6953125 453.405273438 437.6953125 375.916992188 c 4
 437.6953125 198.944335938 506.060546875 -9.2626953125 522.77734375 -55.7861328125 c 4
 531.749023438 -80.7529296875 537.549804688 -96.8974609375 537.549804688 -116.036132812 c 4
 537.549804688 -162.541992188 499.87109375 -200 454.09765625 -200 c 4
 407.669921875 -200 370.514648438 -162.038085938 370.514648438 -116.135742188 c 4
 370.514648438 -109.248046875 371.584960938 -93.4951171875 380.0859375 -77 c 1028
EndSplineSet
Fore
SplineSet
77.5595703125 465.454101562 m 0xff
 77.5595703125 429.584960938 108.58984375 411.122070312 130.924804688 411.122070312 c 0
 133.916015625 411.122070312 136.484375 411.40234375 138.38671875 411.705078125 c 0
 139.399414062 413.015625 149.587890625 426.599609375 149.587890625 442.741210938 c 0
 149.587890625 478.708007812 119.715820312 498.888671875 94.3642578125 498.888671875 c 0
 92.673828125 498.888671875 89.9501953125 498.369140625 88.0400390625 497.951171875 c 0
 86.271484375 495.795898438 79.8916015625 487.192382812 77.5830078125 472.868164062 c 0
 77.5830078125 472.833984375 77.58203125 472.80078125 77.58203125 472.766601562 c 0
 77.5673828125 471.224609375 77.5595703125 465.97265625 77.5595703125 465.454101562 c 0xff
492.126953125 139.252929688 m 1
 509.689453125 170.415039062 543.001953125 240.545898438 543.001953125 350.385742188 c 0xff40
 543.001953125 375.206054688 542.853515625 435.408203125 522.274414062 471.051757812 c 0
 512.439453125 488.086914062 497.893554688 498.624023438 479.985351562 498.624023438 c 0
 479.176757812 498.624023438 478.43359375 498.6015625 477.758789062 498.564453125 c 0
 474.754882812 494.627929688 472.442382812 490.28125 469.776367188 484.689453125 c 0
 466.404296875 477.614257812 459.717773438 464.65234375 459.717773438 387.119140625 c 0
 459.717773438 304.887695312 474.579101562 215.70703125 492.126953125 139.252929688 c 1
73.9521484375 274.862304688 m 0
 73.9521484375 83.828125 210.817382812 14.087890625 304.202148438 14.087890625 c 0
 389.250976562 14.087890625 437.375 66.177734375 455.181640625 86.5947265625 c 1
 434.754882812 169.063476562 415.765625 271.125976562 415.765625 364.71484375 c 0
 415.765625 442.907226562 421.41015625 463.865234375 438.482421875 486.240234375 c 0
 457.247070312 510.833984375 490.204101562 526.799804688 514.984375 526.799804688 c 0
 581.533203125 526.799804688 586.954101562 432.004882812 586.954101562 373.825195312 c 0
 586.954101562 373.473632812 586.954101562 373.12890625 586.954101562 372.790039062 c 0xff40
 586.954101562 334.958984375 584.44140625 208.815429688 500.185546875 105.684570312 c 1
 536.37109375 -38.7783203125 559.572265625 -67.45703125 559.572265625 -104.833984375 c 0
 559.572265625 -127.706054688 550.643554688 -165.751953125 499.290039062 -195.401367188 c 0
 473.625 -210.21875 453.220703125 -214.087890625 436.64453125 -214.087890625 c 0
 384.508789062 -214.087890625 348.584960938 -172.846679688 348.584960938 -127.337890625 c 0
 348.584960938 -120.1015625 349.462890625 -103.940429688 358.918945312 -85.5927734375 c 0
 363.680664062 -76.353515625 386.609375 -62.912109375 397.631835938 -62.912109375 c 0
 398.41796875 -62.912109375 402.108398438 -62.916015625 402.108398438 -65.7978515625 c 0
 402.108398438 -67.708984375 392.537109375 -83.51171875 392.537109375 -104.93359375 c 0
 392.537109375 -151.05078125 430.774414062 -185.912109375 471.643554688 -185.912109375 c 0
 483.31640625 -185.912109375 491.560546875 -182.526367188 491.790039062 -182.411132812 c 0
 492.315429688 -182.119140625 515.620117188 -164.248046875 515.620117188 -127.23828125 c 0xff80
 515.620117188 -92.3828125 495.849609375 -69.783203125 460.71875 64.828125 c 1
 433.962890625 41.3984375 360.91796875 -14.087890625 269.203125 -14.087890625 c 0
 164.748046875 -14.087890625 30 61.75390625 30 252.458007812 c 0
 30 252.987304688 30.4697265625 293.126953125 30.4697265625 305.336914062 c 0
 30.4697265625 305.665039062 30.3642578125 340.057617188 30.3642578125 340.408203125 c 2
 30.3642578125 340.408203125 30.419921875 365.995117188 30.419921875 366.002929688 c 0
 30.419921875 370.57421875 30.2568359375 394.80859375 30.2568359375 395.099609375 c 0
 30.2568359375 395.672851562 30.4951171875 432.484375 33.8330078125 452.282226562 c 0
 35.33203125 461.173828125 39.873046875 488.1015625 80.0810546875 511.31640625 c 0
 87.1015625 515.370117188 109.11328125 527.064453125 129.36328125 527.064453125 c 0
 165.517578125 527.064453125 193.540039062 501.084960938 193.540039062 465.145507812 c 0
 193.540039062 456.510742188 190.495117188 423.421875 146.317382812 397.916015625 c 0
 124.580078125 385.366210938 108.87109375 382.946289062 95.92578125 382.946289062 c 0
 88.4482421875 382.946289062 81.166015625 384.16796875 74.3681640625 386.490234375 c 1
 74.31640625 362.8125 l 2
 74.31640625 362.478515625 74.421875 328.091796875 74.421875 327.741210938 c 0
 74.421875 315.421875 73.9521484375 275.3515625 73.9521484375 274.862304688 c 0
EndSplineSet
Validated: 524289
EndChar

StartChar: z
Encoding: 122 122 37
Width: 659
Flags: W
HStem: -14.0879 28.1758<65.0635 130.364 379.309 502.968> 87.9971 28.1758<82.233 158.053> 151.513 28.1758<537.344 573.191> 321.373 28.1758<97.979 156.32> 382.381 28.1758<479.237 545.964> 437.861 28.1758<103.449 164.841> 499.192 28.1758<143.295 236.429 518.938 578.501>
VStem: 30 43.9521<20.3711 82.047> 49.3984 44.0039<361.827 436.717> 165.755 43.9521<357.02 425.455> 492.03 43.9521<101.389 151.291> 572.188 43.9521<426.196 491.227> 585.148 43.9521<73.3967 145.63>
AnchorPoint: "Anchora 1" 339 580 basechar 0
LayerCount: 2
Back
SplineSet
71.572265625 397 m 4
 73.1240234375 433 105.497070312 451.94921875 128.09375 451.94921875 c 4
 160.440429688 451.94921875 187.831054688 426.2578125 187.831054688 393.173828125 c 4
 187.831054688 358 155.497070312 335.4609375 129.163085938 335.4609375 c 4
 107.497070312 335.4609375 71.56640625 355 71.56640625 392 c 4
 71.56640625 394.908203125 71.474609375 398.7578125 71.474609375 402.286132812 c 4
 71.474609375 459.66015625 118.912109375 513.280273438 190.521484375 513.280273438 c 4
 302.415039062 513.280273438 377.42578125 396.46875 496.961914062 396.46875 c 4
 498.138671875 396.46875 594.264648438 397.13671875 594.264648438 462.587890625 c 4
 594.264648438 490.520507812 572.025390625 512.805664062 544.426757812 512.805664062 c 4
 502.926757812 512.805664062 484.967773438 469.485351562 469.858398438 433.041015625 c 4
 405.44140625 277.46875 289.447265625 149.248046875 165.708984375 35.5458984375 c 4
 149.33203125 20.482421875 127.061523438 0 99.244140625 0 c 4
 71.9296875 0 52.076171875 22.1806640625 52.076171875 47.865234375 c 4
 52.076171875 74.5419921875 73.9892578125 102.084960938 116.26171875 102.084960938 c 4
 193.970703125 102.084960938 323.543945312 0 443.333984375 0 c 4
 545.360351562 0 607.224609375 70.3046875 607.224609375 117.584960938 c 4
 607.224609375 144.787109375 586.568359375 165.600585938 560.481445312 165.600585938 c 4
 536.31640625 165.600585938 514.106445312 146.06640625 514.106445312 118.732421875 c 4
 514.106445312 115.815429688 514.375976562 112.900390625 514.928710938 110.03515625 c 1028
EndSplineSet
Fore
SplineSet
572.188476562 451.385742188 m 0xfe70
 572.188476562 479.4765625 548.921875 498.717773438 526.827148438 498.717773438 c 0
 524.653320312 498.717773438 522.94140625 498.587890625 521.647460938 498.424804688 c 0
 509.43359375 484.5859375 502.5390625 469.448242188 491.294921875 442.327148438 c 0
 487.37890625 432.868164062 483.268554688 423.502929688 478.974609375 414.229492188 c 1
 490.454101562 411.873046875 502.227539062 410.556640625 514.361328125 410.556640625 c 0
 540.578125 411.125976562 559.46875 418.986328125 560.334960938 419.665039062 c 0
 560.830078125 420.0703125 572.188476562 429.619140625 572.188476562 451.385742188 c 0xfe70
561.826171875 526.893554688 m 0
 595.176757812 526.893554688 616.140625 501.262695312 616.140625 473.790039062 c 0xfef0
 616.140625 464.41015625 616.140625 434.52734375 567.720703125 406.572265625 c 0
 560.765625 402.556640625 523.618164062 382.380859375 479.362304688 382.380859375 c 0
 474.028320312 382.380859375 468.798828125 382.594726562 463.663085938 383.00390625 c 1
 406.540039062 272.6953125 323.942382812 175.462890625 233.827148438 87.3037109375 c 1
 244.283203125 82.7099609375 255.018554688 77.826171875 266.02734375 72.8544921875 c 0
 327.829101562 44.9453125 397.4453125 14.087890625 460.733398438 14.087890625 c 0
 497.640625 14.087890625 524.24609375 24.345703125 536.416992188 31.373046875 c 0
 563.41796875 46.9619140625 585.1484375 79.4228515625 585.1484375 106.3828125 c 0
 585.1484375 133.810546875 563.435546875 151.512695312 542.881835938 151.512695312 c 0
 542.546875 151.512695312 542.23046875 151.509765625 541.931640625 151.50390625 c 0
 539.033203125 147.008789062 535.982421875 139.909179688 535.982421875 129.934570312 c 0
 535.982421875 124.93359375 536.8046875 121.974609375 536.8046875 121.237304688 c 0
 536.8046875 113.141601562 510.024414062 95.947265625 497.329101562 95.947265625 c 0
 494.190429688 95.947265625 492.030273438 95.947265625 492.030273438 107.530273438 c 0
 492.030273438 125.5390625 501.017578125 147.053710938 533.59765625 165.864257812 c 0
 553.963867188 177.622070312 568.1015625 179.688476562 577.880859375 179.688476562 c 0
 609.772460938 179.688476562 629.100585938 155.427734375 629.100585938 128.787109375 c 0
 629.100585938 111.4296875 621.508789062 91.05078125 605.422851562 70.26953125 c 0
 579.750976562 37.10546875 514.926757812 -14.087890625 425.734375 -14.087890625 c 0
 356.322265625 -14.087890625 287.235351562 17.69140625 225.282226562 45.6689453125 c 0
 217.223632812 49.30859375 209.2734375 52.8798828125 201.47265625 56.3095703125 c 1
 165.49609375 22.5244140625 157.163085938 15.2021484375 136.900390625 3.50390625 c 0
 116.633789062 -8.197265625 96.13671875 -14.087890625 81.64453125 -14.087890625 c 0
 48.482421875 -14.087890625 30 11.60546875 30 36.6630859375 c 0xff68
 30 55.66796875 39.564453125 78.8876953125 75.197265625 99.4609375 c 0
 99.8251953125 113.6796875 117.432617188 116.172851562 133.661132812 116.172851562 c 0
 158.158203125 116.172851562 185.23828125 107.583984375 214.737304688 95.451171875 c 1
 301.376953125 181.952148438 379.556640625 277.393554688 432.31640625 388.038085938 c 1
 338.014648438 410.811523438 266.372070312 499.192382812 172.921875 499.192382812 c 0
 150.235351562 499.192382812 134.748046875 492.646484375 130.9921875 490.478515625 c 0
 130.580078125 490.240234375 112.8515625 479.954101562 101.483398438 453.131835938 c 1
 121.10546875 463.618164062 135.680664062 466.037109375 145.493164062 466.037109375 c 0
 183.458984375 466.037109375 209.70703125 437.196289062 209.70703125 404.375976562 c 0
 209.70703125 386.690429688 201.5859375 360.23828125 161.609375 337.157226562 c 0
 139.626953125 324.465820312 122.953125 321.373046875 111.563476562 321.373046875 c 0
 84.39453125 321.373046875 49.490234375 343.615234375 49.490234375 380.797851562 c 0
 49.490234375 383.670898438 49.3984375 387.528320312 49.3984375 391.084960938 c 0xfee0
 49.3984375 415.677734375 58.30078125 465.830078125 123.4921875 503.46875 c 0
 155.203125 521.77734375 182.42578125 527.368164062 207.920898438 527.368164062 c 0
 300.35546875 527.368164062 362.974609375 454.36328125 447.975585938 423.161132812 c 1
 463.346679688 460.192382812 475.940429688 490.259765625 514.229492188 512.366210938 c 0
 535.083007812 524.40625 550.44921875 526.893554688 561.826171875 526.893554688 c 0
73.9521484375 59.0673828125 m 0xff60
 73.9521484375 33.1044921875 94.8974609375 14.087890625 116.643554688 14.087890625 c 0
 127.068359375 14.087890625 129.262695312 16.4140625 129.400390625 16.494140625 c 0
 134.379882812 19.369140625 151.650390625 34.5615234375 182.834960938 64.328125 c 1
 150.015625 78.0732421875 120.744140625 87.9970703125 98.662109375 87.9970703125 c 0
 92.1015625 87.9970703125 86.548828125 87.0400390625 83.4765625 86.30859375 c 0
 78.8486328125 80.6845703125 73.9521484375 71.740234375 73.9521484375 59.0673828125 c 0xff60
165.754882812 381.971679688 m 0
 165.754882812 415.091796875 137.416015625 437.861328125 110.494140625 437.861328125 c 0
 108.13671875 437.861328125 105.907226562 437.486328125 104.427734375 437.159179688 c 0
 101.50390625 433.930664062 94.1435546875 424.255859375 93.4453125 408.0546875 c 0
 93.439453125 407.91796875 93.4248046875 407.776367188 93.40234375 407.631835938 c 0xfee0
 93.4228515625 406.053710938 93.4423828125 404.54296875 93.4423828125 403.202148438 c 0
 93.4423828125 366.578125 130.21484375 349.548828125 146.5625 349.548828125 c 0
 149.731445312 349.548828125 152.561523438 350.09375 154.163085938 350.48828125 c 0
 155.04296875 351.357421875 165.754882812 362.340820312 165.754882812 381.971679688 c 0
EndSplineSet
Validated: 524289
EndChar

StartChar: uni0447
Encoding: 1095 1095 38
Width: 587
Flags: W
HStem: -14.0879 21G<517.028 523.769> 166.931 28.1748<217.661 369.272> 383.883 28.1758<90.7285 139.058> 499.623 28.1758<83.8199 154.38>
VStem: 30.1914 43.7607<304.638 387.249 425.717 469.911> 147.736 43.9521<418.273 488.366> 512.944 43.9521<-8.22057 269.618 281.468 521.804>
AnchorPoint: "Anchora 1" 309 580 basechar 0
LayerCount: 2
Back
SplineSet
54.794921875 457.806640625 m 4
 54.775390625 457.193359375 54.7646484375 456.580078125 54.7646484375 455.966796875 c 4
 54.7646484375 421.2109375 84.568359375 397.970703125 112.110351562 397.970703125 c 4
 141.408203125 397.970703125 170.068359375 421.293945312 170.068359375 455.708984375 c 4
 170.068359375 476.083984375 155.73046875 513.7109375 110.712890625 513.7109375 c 4
 52.388671875 513.7109375 52.388671875 447.575195312 52.388671875 426.482421875 c 4
 52.388671875 421.869140625 52.423828125 417.479492188 52.423828125 413.625 c 4
 52.423828125 408.501953125 52.4873046875 403.377929688 52.5234375 398.26953125 c 6
 52.5234375 386.202148438 l 6
 52.453125 381.2890625 52.3330078125 376.375976562 52.3330078125 371.465820312 c 4
 52.3330078125 270.254882812 143.053710938 181.017578125 290.92578125 181.017578125 c 4
 441.916992188 181.017578125 535.736328125 273.609375 535.736328125 374.126953125 c 4
 535.736328125 378.154296875 535.276367188 383.458984375 535.276367188 386.202148438 c 6
 535.276367188 513.583007812 l 5
 535.276367188 0 l 1029
EndSplineSet
Fore
SplineSet
76.384765625 467.168945312 m 0
 76.384765625 432.434570312 107.174804688 412.05859375 129.25390625 412.05859375 c 0
 132.732421875 412.05859375 135.137695312 412.368164062 136.684570312 412.681640625 c 0
 139.35546875 415.764648438 147.736328125 426.2578125 147.736328125 444.506835938 c 0
 147.736328125 466.07421875 131.819335938 499.623046875 92.857421875 499.623046875 c 0
 90.6123046875 499.623046875 88.6328125 499.482421875 86.998046875 499.295898438 c 0
 84.3759765625 495.534179688 79.197265625 486.774414062 76.265625 469.923828125 c 0
 76.3662109375 469.642578125 76.4150390625 469.336914062 76.4150390625 469.008789062 c 0
 76.4150390625 468.990234375 76.384765625 468.056640625 76.384765625 467.168945312 c 0
73.9521484375 382.66796875 m 0
 73.9521484375 282.037109375 164.943359375 195.10546875 308.069335938 195.10546875 c 0
 364.791015625 195.10546875 409.302734375 209.768554688 433.513671875 223.747070312 c 0
 450.565429688 233.591796875 468.596679688 248.696289062 483.697265625 270.176757812 c 0
 500.149414062 293.581054688 512.944335938 321.51953125 512.944335938 350.998046875 c 0
 512.944335938 502.380859375 512.944335938 502.380859375 512.944335938 502.380859375 c 2
 512.944335938 510.4765625 539.724609375 527.670898438 552.419921875 527.670898438 c 0
 553.206054688 527.670898438 556.896484375 527.666992188 556.896484375 524.78515625 c 2
 556.896484375 397.404296875 l 2
 556.896484375 394.822265625 557.356445312 389.463867188 557.356445312 385.329101562 c 0
 557.356445312 381.17578125 557.203125 377.032226562 556.896484375 372.900390625 c 2
 556.896484375 11.2021484375 l 2
 556.896484375 3.1064453125 530.116210938 -14.087890625 517.420898438 -14.087890625 c 0
 516.634765625 -14.087890625 512.944335938 -14.083984375 512.944335938 -11.2021484375 c 2
 512.944335938 269.618164062 l 1
 492.965820312 245.896484375 415.745117188 166.930664062 273.0703125 166.930664062 c 0
 120.413085938 166.930664062 30 258.51171875 30 360.263671875 c 0
 30 361.796875 30 361.796875 30.19140625 375.047851562 c 0
 30.19140625 390.669921875 30.0908203125 402.149414062 30.0908203125 402.423828125 c 2
 30.056640625 415.271484375 l 2
 30.056640625 415.39453125 30.056640625 415.51953125 30.056640625 415.646484375 c 0
 30.056640625 459.002929688 37.9833984375 489.974609375 78.5048828125 513.370117188 c 0
 100.71484375 526.192382812 115.265625 527.798828125 127.856445312 527.798828125 c 0
 179.350585938 527.798828125 191.688476562 485.466796875 191.688476562 466.911132812 c 0
 191.688476562 446.674804688 182.219726562 421.108398438 144.598632812 399.387695312 c 0
 122.313476562 386.521484375 106.08203125 383.8828125 94.2548828125 383.8828125 c 0
 87.2021484375 383.8828125 80.3740234375 385.05859375 73.982421875 387.249023438 c 1
 73.9638671875 385.71875 73.9521484375 384.19140625 73.9521484375 382.66796875 c 0
EndSplineSet
Validated: 524289
EndChar

StartChar: asciicircum
Encoding: 94 94 82
Width: 576
Flags: W
HStem: 353.798 16.2676<51.9544 80.0098 494.135 524.456>
VStem: 267.035 49.4893<605.858 669.121>
LayerCount: 2
Back
SplineSet
104.779296875 513.583007812 m 4
 120.779296875 513.583007812 284.779296875 612 292.779296875 662 c 5
 301.779296875 610 454.779296875 513.583007812 488.779296875 513.583007812 c 1028
EndSplineSet
Fore
SplineSet
526.55859375 365.158203125 m 0
 526.55859375 359.7578125 508.443359375 353.797851562 492.244140625 353.797851562 c 0
 471.65625 353.797851562 428.815429688 355.581054688 357.8125 465.922851562 c 0
 330.4921875 508.380859375 306.310546875 555.784179688 289.698242188 594.063476562 c 1
 281.592773438 576.920898438 202.036132812 411.887695312 122.9921875 368.484375 c 0
 107.828125 360.157226562 88.587890625 353.797851562 65.244140625 353.797851562 c 0
 63.43359375 353.797851562 50 353.961914062 50 358.841796875 c 0
 50 363.657226562 64.625 369.114257812 80.009765625 370.065429688 c 1
 87.751953125 375.151367188 l 1
 160.62109375 421.745117188 258.890625 611.288085938 267.03515625 659.249023438 c 0
 267.939453125 664.57421875 285.59765625 670.202148438 301.313476562 670.202148438 c 0
 309.841796875 670.202148438 316.016601562 668.483398438 316.524414062 665.55078125 c 0
 325.81640625 611.866210938 436.452148438 384.356445312 512.53515625 370.190429688 c 0
 514.724609375 370.146484375 526.55859375 369.701171875 526.55859375 365.158203125 c 0
EndSplineSet
Validated: 524289
EndChar

StartChar: uni0302
Encoding: 770 770 84
Width: 0
Flags: W
HStem: 527.793 15.2451<-529.746 -499.477 -125.794 -100.294>
VStem: -342.967 49.4932<652.424 691.532>
AnchorPoint: "Anchora 1" -321 697 basechar 0
AnchorPoint: "Anchora 1" -321 528 mark 0
LayerCount: 2
Fore
SplineSet
-97.439453125 539.154296875 m 0
 -97.439453125 533.75390625 -115.5546875 527.79296875 -131.75390625 527.79296875 c 0
 -139.872070312 527.79296875 -149.981445312 527.79296875 -176.276367188 539.907226562 c 0
 -219.776367188 559.948242188 -287.790039062 605.171875 -321.721679688 644 c 1
 -365.576171875 599.795898438 -457.266601562 542.4921875 -489.034179688 532.162109375 c 0
 -497.130859375 529.528320312 -506.130859375 527.79296875 -515.75390625 527.79296875 c 0
 -517.563476562 527.79296875 -530.998046875 527.958007812 -530.998046875 532.837890625 c 0
 -530.998046875 536.34375 -523.10546875 540.823242188 -512.27734375 543.038085938 c 1
 -474.291015625 560.561523438 -349.627929688 640.005859375 -342.966796875 681.637695312 c 0
 -342.114257812 686.96875 -324.42578125 692.615234375 -308.68359375 692.615234375 c 0
 -300.15625 692.615234375 -293.98046875 690.895507812 -293.473632812 687.963867188 c 0
 -285.1875 640.091796875 -148.173828125 552.27734375 -110.026367188 544.139648438 c 0
 -107.512695312 544.025390625 -97.439453125 543.30859375 -97.439453125 539.154296875 c 0
EndSplineSet
Validated: 524289
EndChar
